%FSLAX45Y45*%
G04 Gerber Fmt 4.5, Leading zero omitted, Abs format (unit mm)*
G04 Created by KiCad (PCBNEW (5.1.9)-1) date 2021-05-17 23:34:46*
%MOMM*%
%LPD*%
G01*
G04 APERTURE LIST*
%TA.AperFunction,Profile*%
%ADD10C,0.050000*%
%TD*%
%ADD11C,0.200000*%
%ADD12C,0.300000*%
G04 APERTURE END LIST*
D10*
X19494500Y-11181080D02*
X11694500Y-11181080D01*
X19494500Y-5435600D02*
X11694500Y-5435600D01*
X19494500Y-5435600D02*
X19494500Y-11181080D01*
X11694500Y-5435600D02*
X11694500Y-11181080D01*
D11*
D12*
X11978428Y-11649294D02*
X11978428Y-11349294D01*
X12049857Y-11349294D01*
X12092714Y-11363580D01*
X12121286Y-11392151D01*
X12135571Y-11420723D01*
X12149857Y-11477866D01*
X12149857Y-11520723D01*
X12135571Y-11577866D01*
X12121286Y-11606437D01*
X12092714Y-11635009D01*
X12049857Y-11649294D01*
X11978428Y-11649294D01*
X12278428Y-11649294D02*
X12278428Y-11449294D01*
X12278428Y-11506437D02*
X12292714Y-11477866D01*
X12307000Y-11463580D01*
X12335571Y-11449294D01*
X12364143Y-11449294D01*
X12464143Y-11649294D02*
X12464143Y-11449294D01*
X12464143Y-11349294D02*
X12449857Y-11363580D01*
X12464143Y-11377866D01*
X12478428Y-11363580D01*
X12464143Y-11349294D01*
X12464143Y-11377866D01*
X12649857Y-11649294D02*
X12621286Y-11635009D01*
X12607000Y-11606437D01*
X12607000Y-11349294D01*
X12807000Y-11649294D02*
X12778428Y-11635009D01*
X12764143Y-11606437D01*
X12764143Y-11349294D01*
X13149857Y-11649294D02*
X13149857Y-11349294D01*
X13249857Y-11563580D01*
X13349857Y-11349294D01*
X13349857Y-11649294D01*
X13621286Y-11649294D02*
X13621286Y-11492151D01*
X13607000Y-11463580D01*
X13578428Y-11449294D01*
X13521286Y-11449294D01*
X13492714Y-11463580D01*
X13621286Y-11635009D02*
X13592714Y-11649294D01*
X13521286Y-11649294D01*
X13492714Y-11635009D01*
X13478428Y-11606437D01*
X13478428Y-11577866D01*
X13492714Y-11549294D01*
X13521286Y-11535009D01*
X13592714Y-11535009D01*
X13621286Y-11520723D01*
X13764143Y-11449294D02*
X13764143Y-11749294D01*
X13764143Y-11463580D02*
X13792714Y-11449294D01*
X13849857Y-11449294D01*
X13878428Y-11463580D01*
X13892714Y-11477866D01*
X13907000Y-11506437D01*
X13907000Y-11592151D01*
X13892714Y-11620723D01*
X13878428Y-11635009D01*
X13849857Y-11649294D01*
X13792714Y-11649294D01*
X13764143Y-11635009D01*
X14035571Y-11620723D02*
X14049857Y-11635009D01*
X14035571Y-11649294D01*
X14021286Y-11635009D01*
X14035571Y-11620723D01*
X14035571Y-11649294D01*
X14035571Y-11463580D02*
X14049857Y-11477866D01*
X14035571Y-11492151D01*
X14021286Y-11477866D01*
X14035571Y-11463580D01*
X14035571Y-11492151D01*
M02*
