G04 #@! TF.GenerationSoftware,KiCad,Pcbnew,(5.1.9)-1*
G04 #@! TF.CreationDate,2021-05-19T15:47:31+10:00*
G04 #@! TF.ProjectId,publisher,7075626c-6973-4686-9572-2e6b69636164,rev?*
G04 #@! TF.SameCoordinates,Original*
G04 #@! TF.FileFunction,Copper,L1,Top*
G04 #@! TF.FilePolarity,Positive*
%FSLAX46Y46*%
G04 Gerber Fmt 4.6, Leading zero omitted, Abs format (unit mm)*
G04 Created by KiCad (PCBNEW (5.1.9)-1) date 2021-05-19 15:47:31*
%MOMM*%
%LPD*%
G01*
G04 APERTURE LIST*
G04 #@! TA.AperFunction,ComponentPad*
%ADD10O,1.700000X1.700000*%
G04 #@! TD*
G04 #@! TA.AperFunction,ComponentPad*
%ADD11R,1.700000X1.700000*%
G04 #@! TD*
G04 #@! TA.AperFunction,ComponentPad*
%ADD12O,1.600000X1.600000*%
G04 #@! TD*
G04 #@! TA.AperFunction,ComponentPad*
%ADD13C,1.600000*%
G04 #@! TD*
G04 #@! TA.AperFunction,ComponentPad*
%ADD14O,1.600000X2.000000*%
G04 #@! TD*
G04 #@! TA.AperFunction,ComponentPad*
%ADD15R,2.000000X2.000000*%
G04 #@! TD*
G04 #@! TA.AperFunction,ComponentPad*
%ADD16C,2.200000*%
G04 #@! TD*
G04 #@! TA.AperFunction,ComponentPad*
%ADD17R,2.200000X2.200000*%
G04 #@! TD*
G04 #@! TA.AperFunction,ComponentPad*
%ADD18C,6.400000*%
G04 #@! TD*
G04 #@! TA.AperFunction,ComponentPad*
%ADD19R,1.600000X1.600000*%
G04 #@! TD*
G04 #@! TA.AperFunction,ComponentPad*
%ADD20R,1.500000X1.500000*%
G04 #@! TD*
G04 #@! TA.AperFunction,ComponentPad*
%ADD21C,1.500000*%
G04 #@! TD*
G04 #@! TA.AperFunction,ComponentPad*
%ADD22C,1.800000*%
G04 #@! TD*
G04 #@! TA.AperFunction,ComponentPad*
%ADD23R,1.800000X1.800000*%
G04 #@! TD*
G04 #@! TA.AperFunction,ComponentPad*
%ADD24O,2.200000X2.200000*%
G04 #@! TD*
G04 #@! TA.AperFunction,ComponentPad*
%ADD25C,1.879600*%
G04 #@! TD*
G04 #@! TA.AperFunction,Conductor*
%ADD26C,0.400000*%
G04 #@! TD*
G04 #@! TA.AperFunction,Conductor*
%ADD27C,1.000000*%
G04 #@! TD*
G04 #@! TA.AperFunction,Conductor*
%ADD28C,0.254000*%
G04 #@! TD*
G04 #@! TA.AperFunction,Conductor*
%ADD29C,0.100000*%
G04 #@! TD*
G04 APERTURE END LIST*
D10*
X133985000Y-78105000D03*
X131445000Y-78105000D03*
D11*
X128905000Y-78105000D03*
D12*
X153035000Y-95250000D03*
D13*
X153035000Y-105410000D03*
D14*
X182880000Y-64770000D03*
D15*
X185420000Y-64770000D03*
D14*
X180340000Y-64770000D03*
X177800000Y-64770000D03*
X175260000Y-64770000D03*
X172720000Y-64770000D03*
X170180000Y-64770000D03*
X167640000Y-64770000D03*
X167640000Y-87630000D03*
X170180000Y-87630000D03*
X172720000Y-87630000D03*
X175260000Y-87630000D03*
X177800000Y-87630000D03*
X180340000Y-87630000D03*
X182880000Y-87630000D03*
X185420000Y-87630000D03*
D12*
X155575000Y-75565000D03*
D13*
X145415000Y-75565000D03*
D12*
X155575000Y-85725000D03*
D13*
X145415000Y-85725000D03*
D10*
X131445000Y-101600000D03*
X131445000Y-99060000D03*
X131445000Y-96520000D03*
X131445000Y-93980000D03*
X131445000Y-91440000D03*
X131445000Y-88900000D03*
X131445000Y-86360000D03*
D11*
X131445000Y-83820000D03*
D10*
X155575000Y-62865000D03*
D11*
X153035000Y-62865000D03*
D10*
X191135000Y-95250000D03*
D11*
X191135000Y-97790000D03*
D16*
X125095000Y-101600000D03*
X125095000Y-99060000D03*
X125095000Y-96520000D03*
X125095000Y-93980000D03*
X125095000Y-91440000D03*
X125095000Y-88900000D03*
X125095000Y-86360000D03*
D17*
X125095000Y-83820000D03*
D18*
X190945000Y-58320000D03*
X120945000Y-107820000D03*
X120945000Y-58320000D03*
X190945000Y-107820000D03*
D12*
X140970000Y-79375000D03*
D13*
X140970000Y-69215000D03*
D19*
X131445000Y-67945000D03*
D13*
X131445000Y-71445000D03*
D20*
X168529000Y-93345000D03*
D21*
X168529000Y-98425000D03*
X168529000Y-95885000D03*
D20*
X136525000Y-85725000D03*
D21*
X141605000Y-85725000D03*
X139065000Y-85725000D03*
D20*
X168529000Y-101600000D03*
D21*
X168529000Y-106680000D03*
X168529000Y-104140000D03*
D12*
X180975000Y-95250000D03*
D13*
X180975000Y-105410000D03*
D12*
X158115000Y-95250000D03*
D13*
X158115000Y-105410000D03*
D10*
X142240000Y-62865000D03*
X144780000Y-62865000D03*
D11*
X147320000Y-62865000D03*
D12*
X155575000Y-70485000D03*
D13*
X145415000Y-70485000D03*
D12*
X186055000Y-95250000D03*
D13*
X186055000Y-105410000D03*
D12*
X163195000Y-105410000D03*
D13*
X163195000Y-95250000D03*
D22*
X175260000Y-105410000D03*
D23*
X175260000Y-102870000D03*
D22*
X175260000Y-97155000D03*
D23*
X175260000Y-94615000D03*
D11*
X128905000Y-62865000D03*
D10*
X131445000Y-62865000D03*
X133985000Y-62865000D03*
X136525000Y-62865000D03*
D12*
X155575000Y-80645000D03*
D13*
X145415000Y-80645000D03*
D17*
X123190000Y-67310000D03*
D24*
X123190000Y-77470000D03*
D25*
X147955000Y-96520000D03*
X137795000Y-96520000D03*
X137795000Y-99060000D03*
X137795000Y-104140000D03*
X137795000Y-101600000D03*
X137795000Y-93980000D03*
X137795000Y-91440000D03*
X147955000Y-99060000D03*
X147955000Y-104140000D03*
X147955000Y-101600000D03*
X147955000Y-93980000D03*
X147955000Y-91440000D03*
D26*
X144145000Y-80645000D02*
X145415000Y-80645000D01*
X139065000Y-85725000D02*
X144145000Y-80645000D01*
D27*
X140589999Y-61214999D02*
X142240000Y-62865000D01*
X127185001Y-61214999D02*
X140589999Y-61214999D01*
X123190000Y-65210000D02*
X127185001Y-61214999D01*
X123190000Y-67310000D02*
X123190000Y-65210000D01*
X131445000Y-62865000D02*
X131445000Y-61595000D01*
X131445000Y-67945000D02*
X131445000Y-62865000D01*
D26*
X160624999Y-76865001D02*
X150464999Y-76865001D01*
X150464999Y-76865001D02*
X149394801Y-77935199D01*
X149394801Y-92540199D02*
X147955000Y-93980000D01*
X149394801Y-77935199D02*
X149394801Y-92540199D01*
X172720000Y-64770000D02*
X160624999Y-76865001D01*
X159385000Y-75565000D02*
X170180000Y-64770000D01*
X155575000Y-75565000D02*
X159385000Y-75565000D01*
X183919990Y-86129990D02*
X185420000Y-87630000D01*
X153035000Y-95250000D02*
X154335001Y-96550001D01*
X154335001Y-96550001D02*
X158739001Y-96550001D01*
X158739001Y-96550001D02*
X166339990Y-88949012D01*
X166339990Y-88949012D02*
X166339990Y-86891519D01*
X166339990Y-86891519D02*
X167101519Y-86129990D01*
X167101519Y-86129990D02*
X183919990Y-86129990D01*
D27*
X125095000Y-86360000D02*
X131445000Y-86360000D01*
X123190000Y-86010634D02*
X123190000Y-77470000D01*
X125095000Y-86360000D02*
X123539366Y-86360000D01*
X123539366Y-86360000D02*
X123190000Y-86010634D01*
D26*
X125095000Y-93980000D02*
X131445000Y-93980000D01*
X131445000Y-93980000D02*
X137795000Y-93980000D01*
X125095000Y-91440000D02*
X131445000Y-91440000D01*
X131445000Y-91440000D02*
X137795000Y-91440000D01*
X125095000Y-96520000D02*
X131445000Y-96520000D01*
X132715000Y-96520000D02*
X137795000Y-101600000D01*
X131445000Y-96520000D02*
X132715000Y-96520000D01*
X125095000Y-99060000D02*
X131445000Y-99060000D01*
X132715000Y-99060000D02*
X137795000Y-104140000D01*
X131445000Y-99060000D02*
X132715000Y-99060000D01*
X177800000Y-97155000D02*
X186055000Y-105410000D01*
X175260000Y-97155000D02*
X177800000Y-97155000D01*
X173990000Y-93345000D02*
X175260000Y-94615000D01*
X168529000Y-93345000D02*
X173990000Y-93345000D01*
X175260000Y-105410000D02*
X180975000Y-105410000D01*
X173990000Y-101600000D02*
X175260000Y-102870000D01*
X168529000Y-101600000D02*
X173990000Y-101600000D01*
D27*
X133095001Y-87249999D02*
X131445000Y-88900000D01*
X131445000Y-78105000D02*
X133095001Y-79755001D01*
X133095001Y-79755001D02*
X133095001Y-87249999D01*
X131445000Y-88900000D02*
X125095000Y-88900000D01*
D26*
X167894000Y-95250000D02*
X168529000Y-95885000D01*
X163195000Y-95250000D02*
X167894000Y-95250000D01*
X165958999Y-106710001D02*
X168529000Y-104140000D01*
X159415001Y-106710001D02*
X165958999Y-106710001D01*
X158115000Y-105410000D02*
X159415001Y-106710001D01*
X161894999Y-104109999D02*
X163195000Y-105410000D01*
X177800000Y-87630000D02*
X176299990Y-89130010D01*
X176299990Y-89130010D02*
X167390988Y-89130010D01*
X167390988Y-89130010D02*
X161894999Y-94625999D01*
X161894999Y-94625999D02*
X161894999Y-104109999D01*
X165639980Y-86601566D02*
X166811566Y-85429980D01*
X183515000Y-66675000D02*
X179705000Y-66675000D01*
X179705000Y-66675000D02*
X177800000Y-64770000D01*
X185420000Y-68580000D02*
X183515000Y-66675000D01*
X185420000Y-84455000D02*
X185420000Y-68580000D01*
X184445020Y-85429980D02*
X185420000Y-84455000D01*
X166811566Y-85429980D02*
X184445020Y-85429980D01*
X158115000Y-95250000D02*
X165639980Y-87725020D01*
X165639980Y-87725020D02*
X165639980Y-86601566D01*
X175260000Y-64770000D02*
X174758491Y-64770000D01*
X141769999Y-77285999D02*
X145141998Y-73914000D01*
X145141998Y-73914000D02*
X156457509Y-73914000D01*
X156457509Y-73914000D02*
X167101519Y-63269990D01*
X167101519Y-63269990D02*
X173759990Y-63269990D01*
X173759990Y-63269990D02*
X175260000Y-64770000D01*
X140970000Y-79375000D02*
X141769999Y-78575001D01*
X141769999Y-78575001D02*
X141769999Y-77285999D01*
X155575000Y-62925002D02*
X155575000Y-62865000D01*
X147955000Y-70485000D02*
X145415000Y-70485000D01*
X155575000Y-62865000D02*
X147955000Y-70485000D01*
X142240000Y-70485000D02*
X140970000Y-69215000D01*
X145415000Y-70485000D02*
X142240000Y-70485000D01*
X145415000Y-99060000D02*
X145415000Y-85725000D01*
X147955000Y-101600000D02*
X145415000Y-99060000D01*
X147955000Y-78105000D02*
X145415000Y-75565000D01*
X147955000Y-91440000D02*
X147955000Y-78105000D01*
X151765000Y-104140000D02*
X153035000Y-105410000D01*
X147955000Y-104140000D02*
X151765000Y-104140000D01*
X136525000Y-78646998D02*
X136525000Y-85725000D01*
X128905000Y-78105000D02*
X130255001Y-76754999D01*
X130255001Y-76754999D02*
X134633001Y-76754999D01*
X134633001Y-76754999D02*
X136525000Y-78646998D01*
D28*
X188500330Y-55341161D02*
X187966161Y-55875330D01*
X187546467Y-56503446D01*
X187257377Y-57201372D01*
X187110000Y-57942285D01*
X187110000Y-58697715D01*
X187257377Y-59438628D01*
X187546467Y-60136554D01*
X187966161Y-60764670D01*
X188500330Y-61298839D01*
X189128446Y-61718533D01*
X189826372Y-62007623D01*
X190305864Y-62103000D01*
X186690000Y-62103000D01*
X186665224Y-62105440D01*
X186641399Y-62112667D01*
X186619443Y-62124403D01*
X186600197Y-62140197D01*
X186584403Y-62159443D01*
X186572667Y-62181399D01*
X186565440Y-62205224D01*
X186563000Y-62230000D01*
X186563000Y-63149805D01*
X186544482Y-63144188D01*
X186420000Y-63131928D01*
X184420000Y-63131928D01*
X184295518Y-63144188D01*
X184175820Y-63180498D01*
X184065506Y-63239463D01*
X183968815Y-63318815D01*
X183889463Y-63415506D01*
X183842441Y-63503476D01*
X183681101Y-63371068D01*
X183431808Y-63237818D01*
X183161309Y-63155764D01*
X182880000Y-63128057D01*
X182598692Y-63155764D01*
X182328193Y-63237818D01*
X182078900Y-63371068D01*
X181860393Y-63550392D01*
X181681068Y-63768899D01*
X181610000Y-63901858D01*
X181538932Y-63768899D01*
X181359608Y-63550392D01*
X181141101Y-63371068D01*
X180891808Y-63237818D01*
X180621309Y-63155764D01*
X180340000Y-63128057D01*
X180058692Y-63155764D01*
X179788193Y-63237818D01*
X179538900Y-63371068D01*
X179320393Y-63550392D01*
X179141068Y-63768899D01*
X179070000Y-63901858D01*
X178998932Y-63768899D01*
X178819608Y-63550392D01*
X178601101Y-63371068D01*
X178351808Y-63237818D01*
X178081309Y-63155764D01*
X177800000Y-63128057D01*
X177518692Y-63155764D01*
X177248193Y-63237818D01*
X176998900Y-63371068D01*
X176780393Y-63550392D01*
X176601068Y-63768899D01*
X176530000Y-63901858D01*
X176458932Y-63768899D01*
X176279608Y-63550392D01*
X176061101Y-63371068D01*
X175811808Y-63237818D01*
X175541309Y-63155764D01*
X175260000Y-63128057D01*
X174978692Y-63155764D01*
X174862022Y-63191155D01*
X174379436Y-62708569D01*
X174353281Y-62676699D01*
X174226136Y-62572354D01*
X174081077Y-62494818D01*
X173923679Y-62447072D01*
X173801009Y-62434990D01*
X173801008Y-62434990D01*
X173759990Y-62430950D01*
X173718972Y-62434990D01*
X167142526Y-62434990D01*
X167101518Y-62430951D01*
X167060510Y-62434990D01*
X167060500Y-62434990D01*
X166937830Y-62447072D01*
X166780432Y-62494818D01*
X166635373Y-62572354D01*
X166508228Y-62676699D01*
X166482078Y-62708563D01*
X156111642Y-73079000D01*
X145183016Y-73079000D01*
X145141998Y-73074960D01*
X145100980Y-73079000D01*
X145100979Y-73079000D01*
X144978309Y-73091082D01*
X144820911Y-73138828D01*
X144675852Y-73216364D01*
X144548707Y-73320709D01*
X144522561Y-73352568D01*
X141208573Y-76666558D01*
X141176709Y-76692708D01*
X141150561Y-76724570D01*
X141072363Y-76819854D01*
X140994827Y-76964913D01*
X140947081Y-77122311D01*
X140930959Y-77285999D01*
X140935000Y-77327027D01*
X140934999Y-77940000D01*
X140828665Y-77940000D01*
X140551426Y-77995147D01*
X140290273Y-78103320D01*
X140055241Y-78260363D01*
X139855363Y-78460241D01*
X139698320Y-78695273D01*
X139590147Y-78956426D01*
X139535000Y-79233665D01*
X139535000Y-79516335D01*
X139590147Y-79793574D01*
X139698320Y-80054727D01*
X139855363Y-80289759D01*
X140055241Y-80489637D01*
X140290273Y-80646680D01*
X140551426Y-80754853D01*
X140828665Y-80810000D01*
X141111335Y-80810000D01*
X141388574Y-80754853D01*
X141649727Y-80646680D01*
X141884759Y-80489637D01*
X142084637Y-80289759D01*
X142241680Y-80054727D01*
X142349853Y-79793574D01*
X142405000Y-79516335D01*
X142405000Y-79233665D01*
X142386396Y-79140137D01*
X142467635Y-79041147D01*
X142545171Y-78896088D01*
X142592917Y-78738690D01*
X142604999Y-78616020D01*
X142604999Y-78616010D01*
X142609038Y-78575002D01*
X142604999Y-78533994D01*
X142604999Y-77631866D01*
X144099040Y-76137826D01*
X144143320Y-76244727D01*
X144300363Y-76479759D01*
X144500241Y-76679637D01*
X144735273Y-76836680D01*
X144996426Y-76944853D01*
X145273665Y-77000000D01*
X145556335Y-77000000D01*
X145650418Y-76981285D01*
X147120001Y-78450869D01*
X147120000Y-90103933D01*
X146951123Y-90216773D01*
X146731773Y-90436123D01*
X146559430Y-90694052D01*
X146440718Y-90980648D01*
X146380200Y-91284896D01*
X146380200Y-91595104D01*
X146440718Y-91899352D01*
X146559430Y-92185948D01*
X146731773Y-92443877D01*
X146951123Y-92663227D01*
X147021124Y-92710000D01*
X146951123Y-92756773D01*
X146731773Y-92976123D01*
X146559430Y-93234052D01*
X146440718Y-93520648D01*
X146380200Y-93824896D01*
X146380200Y-94135104D01*
X146440718Y-94439352D01*
X146559430Y-94725948D01*
X146731773Y-94983877D01*
X146951123Y-95203227D01*
X147087714Y-95294495D01*
X147042129Y-95427524D01*
X147955000Y-96340395D01*
X148867871Y-95427524D01*
X148822286Y-95294495D01*
X148958877Y-95203227D01*
X149178227Y-94983877D01*
X149350570Y-94725948D01*
X149469282Y-94439352D01*
X149529800Y-94135104D01*
X149529800Y-93824896D01*
X149490176Y-93625691D01*
X149956227Y-93159640D01*
X149988092Y-93133490D01*
X150092437Y-93006345D01*
X150169973Y-92861286D01*
X150217719Y-92703888D01*
X150229801Y-92581218D01*
X150233841Y-92540200D01*
X150229801Y-92499181D01*
X150229801Y-85583665D01*
X154140000Y-85583665D01*
X154140000Y-85866335D01*
X154195147Y-86143574D01*
X154303320Y-86404727D01*
X154460363Y-86639759D01*
X154660241Y-86839637D01*
X154895273Y-86996680D01*
X155156426Y-87104853D01*
X155433665Y-87160000D01*
X155716335Y-87160000D01*
X155993574Y-87104853D01*
X156254727Y-86996680D01*
X156489759Y-86839637D01*
X156689637Y-86639759D01*
X156846680Y-86404727D01*
X156954853Y-86143574D01*
X157010000Y-85866335D01*
X157010000Y-85583665D01*
X156954853Y-85306426D01*
X156846680Y-85045273D01*
X156689637Y-84810241D01*
X156489759Y-84610363D01*
X156254727Y-84453320D01*
X155993574Y-84345147D01*
X155716335Y-84290000D01*
X155433665Y-84290000D01*
X155156426Y-84345147D01*
X154895273Y-84453320D01*
X154660241Y-84610363D01*
X154460363Y-84810241D01*
X154303320Y-85045273D01*
X154195147Y-85306426D01*
X154140000Y-85583665D01*
X150229801Y-85583665D01*
X150229801Y-80503665D01*
X154140000Y-80503665D01*
X154140000Y-80786335D01*
X154195147Y-81063574D01*
X154303320Y-81324727D01*
X154460363Y-81559759D01*
X154660241Y-81759637D01*
X154895273Y-81916680D01*
X155156426Y-82024853D01*
X155433665Y-82080000D01*
X155716335Y-82080000D01*
X155993574Y-82024853D01*
X156254727Y-81916680D01*
X156489759Y-81759637D01*
X156689637Y-81559759D01*
X156846680Y-81324727D01*
X156954853Y-81063574D01*
X157010000Y-80786335D01*
X157010000Y-80503665D01*
X156954853Y-80226426D01*
X156846680Y-79965273D01*
X156689637Y-79730241D01*
X156489759Y-79530363D01*
X156254727Y-79373320D01*
X155993574Y-79265147D01*
X155716335Y-79210000D01*
X155433665Y-79210000D01*
X155156426Y-79265147D01*
X154895273Y-79373320D01*
X154660241Y-79530363D01*
X154460363Y-79730241D01*
X154303320Y-79965273D01*
X154195147Y-80226426D01*
X154140000Y-80503665D01*
X150229801Y-80503665D01*
X150229801Y-78281066D01*
X150810868Y-77700001D01*
X160583981Y-77700001D01*
X160624999Y-77704041D01*
X160666017Y-77700001D01*
X160666018Y-77700001D01*
X160788688Y-77687919D01*
X160946086Y-77640173D01*
X161091145Y-77562637D01*
X161218290Y-77458292D01*
X161244445Y-77426422D01*
X172322022Y-66348845D01*
X172438691Y-66384236D01*
X172720000Y-66411943D01*
X173001308Y-66384236D01*
X173271807Y-66302182D01*
X173521100Y-66168932D01*
X173739607Y-65989608D01*
X173918932Y-65771101D01*
X173990000Y-65638142D01*
X174061068Y-65771100D01*
X174240392Y-65989607D01*
X174458899Y-66168932D01*
X174708192Y-66302182D01*
X174978691Y-66384236D01*
X175260000Y-66411943D01*
X175541308Y-66384236D01*
X175811807Y-66302182D01*
X176061100Y-66168932D01*
X176279607Y-65989608D01*
X176458932Y-65771101D01*
X176530000Y-65638142D01*
X176601068Y-65771100D01*
X176780392Y-65989607D01*
X176998899Y-66168932D01*
X177248192Y-66302182D01*
X177518691Y-66384236D01*
X177800000Y-66411943D01*
X178081308Y-66384236D01*
X178197977Y-66348845D01*
X179085563Y-67236432D01*
X179111709Y-67268291D01*
X179143568Y-67294437D01*
X179143570Y-67294439D01*
X179238854Y-67372636D01*
X179383913Y-67450172D01*
X179541311Y-67497918D01*
X179705000Y-67514040D01*
X179746018Y-67510000D01*
X183169133Y-67510000D01*
X184585001Y-68925870D01*
X184585000Y-84109132D01*
X184099152Y-84594980D01*
X166852584Y-84594980D01*
X166811566Y-84590940D01*
X166770547Y-84594980D01*
X166647877Y-84607062D01*
X166490479Y-84654808D01*
X166345420Y-84732344D01*
X166218275Y-84836689D01*
X166192129Y-84868548D01*
X165078554Y-85982125D01*
X165046690Y-86008275D01*
X164997182Y-86068601D01*
X164942344Y-86135421D01*
X164864808Y-86280480D01*
X164817062Y-86437878D01*
X164800940Y-86601566D01*
X164804981Y-86642594D01*
X164804980Y-87379151D01*
X158350418Y-93833715D01*
X158256335Y-93815000D01*
X157973665Y-93815000D01*
X157696426Y-93870147D01*
X157435273Y-93978320D01*
X157200241Y-94135363D01*
X157000363Y-94335241D01*
X156843320Y-94570273D01*
X156735147Y-94831426D01*
X156680000Y-95108665D01*
X156680000Y-95391335D01*
X156735147Y-95668574D01*
X156754378Y-95715001D01*
X154680869Y-95715001D01*
X154451286Y-95485418D01*
X154470000Y-95391335D01*
X154470000Y-95108665D01*
X154414853Y-94831426D01*
X154306680Y-94570273D01*
X154149637Y-94335241D01*
X153949759Y-94135363D01*
X153714727Y-93978320D01*
X153453574Y-93870147D01*
X153176335Y-93815000D01*
X152893665Y-93815000D01*
X152616426Y-93870147D01*
X152355273Y-93978320D01*
X152120241Y-94135363D01*
X151920363Y-94335241D01*
X151763320Y-94570273D01*
X151655147Y-94831426D01*
X151600000Y-95108665D01*
X151600000Y-95391335D01*
X151655147Y-95668574D01*
X151763320Y-95929727D01*
X151920363Y-96164759D01*
X152120241Y-96364637D01*
X152355273Y-96521680D01*
X152616426Y-96629853D01*
X152893665Y-96685000D01*
X153176335Y-96685000D01*
X153270418Y-96666286D01*
X153715559Y-97111427D01*
X153741710Y-97143292D01*
X153846316Y-97229140D01*
X153868855Y-97247637D01*
X154013914Y-97325173D01*
X154171312Y-97372919D01*
X154335000Y-97389041D01*
X154376019Y-97385001D01*
X158697983Y-97385001D01*
X158739001Y-97389041D01*
X158780019Y-97385001D01*
X158780020Y-97385001D01*
X158902690Y-97372919D01*
X159060088Y-97325173D01*
X159205147Y-97247637D01*
X159332292Y-97143292D01*
X159358447Y-97111422D01*
X161059999Y-95409870D01*
X161060000Y-104068970D01*
X161055959Y-104109999D01*
X161072081Y-104273687D01*
X161119827Y-104431085D01*
X161196752Y-104575000D01*
X161197364Y-104576145D01*
X161301709Y-104703290D01*
X161333573Y-104729440D01*
X161778715Y-105174582D01*
X161760000Y-105268665D01*
X161760000Y-105551335D01*
X161815147Y-105828574D01*
X161834378Y-105875001D01*
X159760869Y-105875001D01*
X159531286Y-105645418D01*
X159550000Y-105551335D01*
X159550000Y-105268665D01*
X159494853Y-104991426D01*
X159386680Y-104730273D01*
X159229637Y-104495241D01*
X159029759Y-104295363D01*
X158794727Y-104138320D01*
X158533574Y-104030147D01*
X158256335Y-103975000D01*
X157973665Y-103975000D01*
X157696426Y-104030147D01*
X157435273Y-104138320D01*
X157200241Y-104295363D01*
X157000363Y-104495241D01*
X156843320Y-104730273D01*
X156735147Y-104991426D01*
X156680000Y-105268665D01*
X156680000Y-105551335D01*
X156735147Y-105828574D01*
X156843320Y-106089727D01*
X157000363Y-106324759D01*
X157200241Y-106524637D01*
X157435273Y-106681680D01*
X157696426Y-106789853D01*
X157973665Y-106845000D01*
X158256335Y-106845000D01*
X158350418Y-106826286D01*
X158795559Y-107271427D01*
X158821710Y-107303292D01*
X158929634Y-107391863D01*
X158948855Y-107407637D01*
X159093914Y-107485173D01*
X159251312Y-107532919D01*
X159415000Y-107549041D01*
X159456019Y-107545001D01*
X165917981Y-107545001D01*
X165958999Y-107549041D01*
X166000017Y-107545001D01*
X166000018Y-107545001D01*
X166122688Y-107532919D01*
X166280086Y-107485173D01*
X166425145Y-107407637D01*
X166552290Y-107303292D01*
X166578445Y-107271422D01*
X167141208Y-106708659D01*
X167139188Y-106752492D01*
X167180035Y-107022238D01*
X167272723Y-107278832D01*
X167333140Y-107391863D01*
X167572007Y-107457388D01*
X168349395Y-106680000D01*
X168708605Y-106680000D01*
X169485993Y-107457388D01*
X169724860Y-107391863D01*
X169840760Y-107144884D01*
X169906250Y-106880040D01*
X169918812Y-106607508D01*
X169877965Y-106337762D01*
X169785277Y-106081168D01*
X169724860Y-105968137D01*
X169485993Y-105902612D01*
X168708605Y-106680000D01*
X168349395Y-106680000D01*
X168335253Y-106665858D01*
X168514858Y-106486253D01*
X168529000Y-106500395D01*
X169306388Y-105723007D01*
X169240863Y-105484140D01*
X169082523Y-105409836D01*
X169185043Y-105367371D01*
X169411886Y-105215799D01*
X169604799Y-105022886D01*
X169756371Y-104796043D01*
X169860775Y-104543989D01*
X169914000Y-104276411D01*
X169914000Y-104003589D01*
X169860775Y-103736011D01*
X169756371Y-103483957D01*
X169604799Y-103257114D01*
X169411886Y-103064201D01*
X169295517Y-102986445D01*
X169403482Y-102975812D01*
X169523180Y-102939502D01*
X169633494Y-102880537D01*
X169730185Y-102801185D01*
X169809537Y-102704494D01*
X169868502Y-102594180D01*
X169904812Y-102474482D01*
X169908701Y-102435000D01*
X173644133Y-102435000D01*
X173721928Y-102512795D01*
X173721928Y-103770000D01*
X173734188Y-103894482D01*
X173770498Y-104014180D01*
X173829463Y-104124494D01*
X173908815Y-104221185D01*
X174005506Y-104300537D01*
X174115820Y-104359502D01*
X174134127Y-104365056D01*
X174067688Y-104431495D01*
X173899701Y-104682905D01*
X173783989Y-104962257D01*
X173725000Y-105258816D01*
X173725000Y-105561184D01*
X173783989Y-105857743D01*
X173899701Y-106137095D01*
X174067688Y-106388505D01*
X174281495Y-106602312D01*
X174532905Y-106770299D01*
X174812257Y-106886011D01*
X175108816Y-106945000D01*
X175411184Y-106945000D01*
X175707743Y-106886011D01*
X175987095Y-106770299D01*
X176238505Y-106602312D01*
X176452312Y-106388505D01*
X176548199Y-106245000D01*
X179807070Y-106245000D01*
X179860363Y-106324759D01*
X180060241Y-106524637D01*
X180295273Y-106681680D01*
X180556426Y-106789853D01*
X180833665Y-106845000D01*
X181116335Y-106845000D01*
X181393574Y-106789853D01*
X181654727Y-106681680D01*
X181889759Y-106524637D01*
X182089637Y-106324759D01*
X182246680Y-106089727D01*
X182354853Y-105828574D01*
X182410000Y-105551335D01*
X182410000Y-105268665D01*
X182354853Y-104991426D01*
X182246680Y-104730273D01*
X182089637Y-104495241D01*
X181889759Y-104295363D01*
X181654727Y-104138320D01*
X181393574Y-104030147D01*
X181116335Y-103975000D01*
X180833665Y-103975000D01*
X180556426Y-104030147D01*
X180295273Y-104138320D01*
X180060241Y-104295363D01*
X179860363Y-104495241D01*
X179807070Y-104575000D01*
X176548199Y-104575000D01*
X176452312Y-104431495D01*
X176385873Y-104365056D01*
X176404180Y-104359502D01*
X176514494Y-104300537D01*
X176611185Y-104221185D01*
X176690537Y-104124494D01*
X176749502Y-104014180D01*
X176785812Y-103894482D01*
X176798072Y-103770000D01*
X176798072Y-101970000D01*
X176785812Y-101845518D01*
X176749502Y-101725820D01*
X176690537Y-101615506D01*
X176611185Y-101518815D01*
X176514494Y-101439463D01*
X176404180Y-101380498D01*
X176284482Y-101344188D01*
X176160000Y-101331928D01*
X174902795Y-101331928D01*
X174609446Y-101038579D01*
X174583291Y-101006709D01*
X174456146Y-100902364D01*
X174311087Y-100824828D01*
X174153689Y-100777082D01*
X174031019Y-100765000D01*
X174031018Y-100765000D01*
X173990000Y-100760960D01*
X173948982Y-100765000D01*
X169908701Y-100765000D01*
X169904812Y-100725518D01*
X169868502Y-100605820D01*
X169809537Y-100495506D01*
X169730185Y-100398815D01*
X169633494Y-100319463D01*
X169523180Y-100260498D01*
X169403482Y-100224188D01*
X169279000Y-100211928D01*
X167779000Y-100211928D01*
X167654518Y-100224188D01*
X167534820Y-100260498D01*
X167424506Y-100319463D01*
X167327815Y-100398815D01*
X167248463Y-100495506D01*
X167189498Y-100605820D01*
X167153188Y-100725518D01*
X167140928Y-100850000D01*
X167140928Y-102350000D01*
X167153188Y-102474482D01*
X167189498Y-102594180D01*
X167248463Y-102704494D01*
X167327815Y-102801185D01*
X167424506Y-102880537D01*
X167534820Y-102939502D01*
X167654518Y-102975812D01*
X167762483Y-102986445D01*
X167646114Y-103064201D01*
X167453201Y-103257114D01*
X167301629Y-103483957D01*
X167197225Y-103736011D01*
X167144000Y-104003589D01*
X167144000Y-104276411D01*
X167155236Y-104332897D01*
X165613132Y-105875001D01*
X164555622Y-105875001D01*
X164574853Y-105828574D01*
X164630000Y-105551335D01*
X164630000Y-105268665D01*
X164574853Y-104991426D01*
X164466680Y-104730273D01*
X164309637Y-104495241D01*
X164109759Y-104295363D01*
X163874727Y-104138320D01*
X163613574Y-104030147D01*
X163336335Y-103975000D01*
X163053665Y-103975000D01*
X162959582Y-103993715D01*
X162729999Y-103764132D01*
X162729999Y-99381993D01*
X167751612Y-99381993D01*
X167817137Y-99620860D01*
X168064116Y-99736760D01*
X168328960Y-99802250D01*
X168601492Y-99814812D01*
X168871238Y-99773965D01*
X169127832Y-99681277D01*
X169240863Y-99620860D01*
X169306388Y-99381993D01*
X168529000Y-98604605D01*
X167751612Y-99381993D01*
X162729999Y-99381993D01*
X162729999Y-98497492D01*
X167139188Y-98497492D01*
X167180035Y-98767238D01*
X167272723Y-99023832D01*
X167333140Y-99136863D01*
X167572007Y-99202388D01*
X168349395Y-98425000D01*
X168708605Y-98425000D01*
X169485993Y-99202388D01*
X169724860Y-99136863D01*
X169840760Y-98889884D01*
X169906250Y-98625040D01*
X169918812Y-98352508D01*
X169877965Y-98082762D01*
X169785277Y-97826168D01*
X169724860Y-97713137D01*
X169485993Y-97647612D01*
X168708605Y-98425000D01*
X168349395Y-98425000D01*
X167572007Y-97647612D01*
X167333140Y-97713137D01*
X167217240Y-97960116D01*
X167151750Y-98224960D01*
X167139188Y-98497492D01*
X162729999Y-98497492D01*
X162729999Y-96610622D01*
X162776426Y-96629853D01*
X163053665Y-96685000D01*
X163336335Y-96685000D01*
X163613574Y-96629853D01*
X163874727Y-96521680D01*
X164109759Y-96364637D01*
X164309637Y-96164759D01*
X164362930Y-96085000D01*
X167156649Y-96085000D01*
X167197225Y-96288989D01*
X167301629Y-96541043D01*
X167453201Y-96767886D01*
X167646114Y-96960799D01*
X167872957Y-97112371D01*
X167972279Y-97153511D01*
X167930168Y-97168723D01*
X167817137Y-97229140D01*
X167751612Y-97468007D01*
X168529000Y-98245395D01*
X169306388Y-97468007D01*
X169240863Y-97229140D01*
X169082523Y-97154836D01*
X169185043Y-97112371D01*
X169411886Y-96960799D01*
X169604799Y-96767886D01*
X169756371Y-96541043D01*
X169860775Y-96288989D01*
X169914000Y-96021411D01*
X169914000Y-95748589D01*
X169860775Y-95481011D01*
X169756371Y-95228957D01*
X169604799Y-95002114D01*
X169411886Y-94809201D01*
X169295517Y-94731445D01*
X169403482Y-94720812D01*
X169523180Y-94684502D01*
X169633494Y-94625537D01*
X169730185Y-94546185D01*
X169809537Y-94449494D01*
X169868502Y-94339180D01*
X169904812Y-94219482D01*
X169908701Y-94180000D01*
X173644133Y-94180000D01*
X173721928Y-94257795D01*
X173721928Y-95515000D01*
X173734188Y-95639482D01*
X173770498Y-95759180D01*
X173829463Y-95869494D01*
X173908815Y-95966185D01*
X174005506Y-96045537D01*
X174115820Y-96104502D01*
X174134127Y-96110056D01*
X174067688Y-96176495D01*
X173899701Y-96427905D01*
X173783989Y-96707257D01*
X173725000Y-97003816D01*
X173725000Y-97306184D01*
X173783989Y-97602743D01*
X173899701Y-97882095D01*
X174067688Y-98133505D01*
X174281495Y-98347312D01*
X174532905Y-98515299D01*
X174812257Y-98631011D01*
X175108816Y-98690000D01*
X175411184Y-98690000D01*
X175707743Y-98631011D01*
X175987095Y-98515299D01*
X176238505Y-98347312D01*
X176452312Y-98133505D01*
X176548199Y-97990000D01*
X177454133Y-97990000D01*
X184638714Y-105174583D01*
X184620000Y-105268665D01*
X184620000Y-105551335D01*
X184675147Y-105828574D01*
X184783320Y-106089727D01*
X184940363Y-106324759D01*
X185140241Y-106524637D01*
X185375273Y-106681680D01*
X185636426Y-106789853D01*
X185913665Y-106845000D01*
X186196335Y-106845000D01*
X186473574Y-106789853D01*
X186734727Y-106681680D01*
X186969759Y-106524637D01*
X187169637Y-106324759D01*
X187326680Y-106089727D01*
X187434853Y-105828574D01*
X187490000Y-105551335D01*
X187490000Y-105268665D01*
X187434853Y-104991426D01*
X187326680Y-104730273D01*
X187169637Y-104495241D01*
X186969759Y-104295363D01*
X186734727Y-104138320D01*
X186473574Y-104030147D01*
X186196335Y-103975000D01*
X185913665Y-103975000D01*
X185819583Y-103993714D01*
X180465868Y-98640000D01*
X189646928Y-98640000D01*
X189659188Y-98764482D01*
X189695498Y-98884180D01*
X189754463Y-98994494D01*
X189833815Y-99091185D01*
X189930506Y-99170537D01*
X190040820Y-99229502D01*
X190160518Y-99265812D01*
X190285000Y-99278072D01*
X190849250Y-99275000D01*
X191008000Y-99116250D01*
X191008000Y-97917000D01*
X191262000Y-97917000D01*
X191262000Y-99116250D01*
X191420750Y-99275000D01*
X191985000Y-99278072D01*
X192109482Y-99265812D01*
X192229180Y-99229502D01*
X192339494Y-99170537D01*
X192436185Y-99091185D01*
X192515537Y-98994494D01*
X192574502Y-98884180D01*
X192610812Y-98764482D01*
X192623072Y-98640000D01*
X192620000Y-98075750D01*
X192461250Y-97917000D01*
X191262000Y-97917000D01*
X191008000Y-97917000D01*
X189808750Y-97917000D01*
X189650000Y-98075750D01*
X189646928Y-98640000D01*
X180465868Y-98640000D01*
X178765868Y-96940000D01*
X189646928Y-96940000D01*
X189650000Y-97504250D01*
X189808750Y-97663000D01*
X191008000Y-97663000D01*
X191008000Y-97643000D01*
X191262000Y-97643000D01*
X191262000Y-97663000D01*
X192461250Y-97663000D01*
X192620000Y-97504250D01*
X192623072Y-96940000D01*
X192610812Y-96815518D01*
X192574502Y-96695820D01*
X192515537Y-96585506D01*
X192436185Y-96488815D01*
X192339494Y-96409463D01*
X192229180Y-96350498D01*
X192156620Y-96328487D01*
X192288475Y-96196632D01*
X192450990Y-95953411D01*
X192562932Y-95683158D01*
X192620000Y-95396260D01*
X192620000Y-95103740D01*
X192562932Y-94816842D01*
X192450990Y-94546589D01*
X192288475Y-94303368D01*
X192081632Y-94096525D01*
X191838411Y-93934010D01*
X191568158Y-93822068D01*
X191281260Y-93765000D01*
X190988740Y-93765000D01*
X190701842Y-93822068D01*
X190431589Y-93934010D01*
X190188368Y-94096525D01*
X189981525Y-94303368D01*
X189819010Y-94546589D01*
X189707068Y-94816842D01*
X189650000Y-95103740D01*
X189650000Y-95396260D01*
X189707068Y-95683158D01*
X189819010Y-95953411D01*
X189981525Y-96196632D01*
X190113380Y-96328487D01*
X190040820Y-96350498D01*
X189930506Y-96409463D01*
X189833815Y-96488815D01*
X189754463Y-96585506D01*
X189695498Y-96695820D01*
X189659188Y-96815518D01*
X189646928Y-96940000D01*
X178765868Y-96940000D01*
X178419446Y-96593579D01*
X178393291Y-96561709D01*
X178266146Y-96457364D01*
X178121087Y-96379828D01*
X177963689Y-96332082D01*
X177841019Y-96320000D01*
X177841018Y-96320000D01*
X177800000Y-96315960D01*
X177758982Y-96320000D01*
X176548199Y-96320000D01*
X176452312Y-96176495D01*
X176385873Y-96110056D01*
X176404180Y-96104502D01*
X176514494Y-96045537D01*
X176611185Y-95966185D01*
X176690537Y-95869494D01*
X176749502Y-95759180D01*
X176785812Y-95639482D01*
X176798072Y-95515000D01*
X176798072Y-95108665D01*
X179540000Y-95108665D01*
X179540000Y-95391335D01*
X179595147Y-95668574D01*
X179703320Y-95929727D01*
X179860363Y-96164759D01*
X180060241Y-96364637D01*
X180295273Y-96521680D01*
X180556426Y-96629853D01*
X180833665Y-96685000D01*
X181116335Y-96685000D01*
X181393574Y-96629853D01*
X181654727Y-96521680D01*
X181889759Y-96364637D01*
X182089637Y-96164759D01*
X182246680Y-95929727D01*
X182354853Y-95668574D01*
X182410000Y-95391335D01*
X182410000Y-95108665D01*
X184620000Y-95108665D01*
X184620000Y-95391335D01*
X184675147Y-95668574D01*
X184783320Y-95929727D01*
X184940363Y-96164759D01*
X185140241Y-96364637D01*
X185375273Y-96521680D01*
X185636426Y-96629853D01*
X185913665Y-96685000D01*
X186196335Y-96685000D01*
X186473574Y-96629853D01*
X186734727Y-96521680D01*
X186969759Y-96364637D01*
X187169637Y-96164759D01*
X187326680Y-95929727D01*
X187434853Y-95668574D01*
X187490000Y-95391335D01*
X187490000Y-95108665D01*
X187434853Y-94831426D01*
X187326680Y-94570273D01*
X187169637Y-94335241D01*
X186969759Y-94135363D01*
X186734727Y-93978320D01*
X186473574Y-93870147D01*
X186196335Y-93815000D01*
X185913665Y-93815000D01*
X185636426Y-93870147D01*
X185375273Y-93978320D01*
X185140241Y-94135363D01*
X184940363Y-94335241D01*
X184783320Y-94570273D01*
X184675147Y-94831426D01*
X184620000Y-95108665D01*
X182410000Y-95108665D01*
X182354853Y-94831426D01*
X182246680Y-94570273D01*
X182089637Y-94335241D01*
X181889759Y-94135363D01*
X181654727Y-93978320D01*
X181393574Y-93870147D01*
X181116335Y-93815000D01*
X180833665Y-93815000D01*
X180556426Y-93870147D01*
X180295273Y-93978320D01*
X180060241Y-94135363D01*
X179860363Y-94335241D01*
X179703320Y-94570273D01*
X179595147Y-94831426D01*
X179540000Y-95108665D01*
X176798072Y-95108665D01*
X176798072Y-93715000D01*
X176785812Y-93590518D01*
X176749502Y-93470820D01*
X176690537Y-93360506D01*
X176611185Y-93263815D01*
X176514494Y-93184463D01*
X176404180Y-93125498D01*
X176284482Y-93089188D01*
X176160000Y-93076928D01*
X174902795Y-93076928D01*
X174609446Y-92783579D01*
X174583291Y-92751709D01*
X174456146Y-92647364D01*
X174311087Y-92569828D01*
X174153689Y-92522082D01*
X174031019Y-92510000D01*
X174031018Y-92510000D01*
X173990000Y-92505960D01*
X173948982Y-92510000D01*
X169908701Y-92510000D01*
X169904812Y-92470518D01*
X169868502Y-92350820D01*
X169809537Y-92240506D01*
X169730185Y-92143815D01*
X169633494Y-92064463D01*
X169523180Y-92005498D01*
X169403482Y-91969188D01*
X169279000Y-91956928D01*
X167779000Y-91956928D01*
X167654518Y-91969188D01*
X167534820Y-92005498D01*
X167424506Y-92064463D01*
X167327815Y-92143815D01*
X167248463Y-92240506D01*
X167189498Y-92350820D01*
X167153188Y-92470518D01*
X167140928Y-92595000D01*
X167140928Y-94095000D01*
X167153188Y-94219482D01*
X167189498Y-94339180D01*
X167230025Y-94415000D01*
X164362930Y-94415000D01*
X164309637Y-94335241D01*
X164109759Y-94135363D01*
X163874727Y-93978320D01*
X163767825Y-93934040D01*
X167736856Y-89965010D01*
X176258972Y-89965010D01*
X176299990Y-89969050D01*
X176341008Y-89965010D01*
X176341009Y-89965010D01*
X176463679Y-89952928D01*
X176621077Y-89905182D01*
X176766136Y-89827646D01*
X176893281Y-89723301D01*
X176919436Y-89691431D01*
X177402022Y-89208845D01*
X177518691Y-89244236D01*
X177800000Y-89271943D01*
X178081308Y-89244236D01*
X178351807Y-89162182D01*
X178601100Y-89028932D01*
X178819607Y-88849608D01*
X178998932Y-88631101D01*
X179070000Y-88498142D01*
X179141068Y-88631100D01*
X179320392Y-88849607D01*
X179538899Y-89028932D01*
X179788192Y-89162182D01*
X180058691Y-89244236D01*
X180340000Y-89271943D01*
X180621308Y-89244236D01*
X180891807Y-89162182D01*
X181141100Y-89028932D01*
X181359607Y-88849608D01*
X181538932Y-88631101D01*
X181610000Y-88498142D01*
X181681068Y-88631100D01*
X181860392Y-88849607D01*
X182078899Y-89028932D01*
X182328192Y-89162182D01*
X182598691Y-89244236D01*
X182880000Y-89271943D01*
X183161308Y-89244236D01*
X183431807Y-89162182D01*
X183681100Y-89028932D01*
X183899607Y-88849608D01*
X184078932Y-88631101D01*
X184150000Y-88498142D01*
X184221068Y-88631100D01*
X184400392Y-88849607D01*
X184618899Y-89028932D01*
X184868192Y-89162182D01*
X185138691Y-89244236D01*
X185420000Y-89271943D01*
X185701308Y-89244236D01*
X185971807Y-89162182D01*
X186221100Y-89028932D01*
X186439607Y-88849608D01*
X186563000Y-88699254D01*
X186563000Y-89535000D01*
X186565045Y-89557697D01*
X186571874Y-89581639D01*
X186583242Y-89603788D01*
X186598713Y-89623294D01*
X186617693Y-89639406D01*
X186639451Y-89651507D01*
X186663151Y-89659130D01*
X186687884Y-89661982D01*
X194183000Y-89786901D01*
X194183000Y-105763192D01*
X193923839Y-105375330D01*
X193389670Y-104841161D01*
X192761554Y-104421467D01*
X192063628Y-104132377D01*
X191322715Y-103985000D01*
X190567285Y-103985000D01*
X189826372Y-104132377D01*
X189128446Y-104421467D01*
X188500330Y-104841161D01*
X187966161Y-105375330D01*
X187546467Y-106003446D01*
X187257377Y-106701372D01*
X187110000Y-107442285D01*
X187110000Y-108197715D01*
X187257377Y-108938628D01*
X187546467Y-109636554D01*
X187966161Y-110264670D01*
X188500330Y-110798839D01*
X188988464Y-111125000D01*
X122901536Y-111125000D01*
X123389670Y-110798839D01*
X123923839Y-110264670D01*
X124343533Y-109636554D01*
X124632623Y-108938628D01*
X124780000Y-108197715D01*
X124780000Y-107636993D01*
X167751612Y-107636993D01*
X167817137Y-107875860D01*
X168064116Y-107991760D01*
X168328960Y-108057250D01*
X168601492Y-108069812D01*
X168871238Y-108028965D01*
X169127832Y-107936277D01*
X169240863Y-107875860D01*
X169306388Y-107636993D01*
X168529000Y-106859605D01*
X167751612Y-107636993D01*
X124780000Y-107636993D01*
X124780000Y-107442285D01*
X124632623Y-106701372D01*
X124343533Y-106003446D01*
X123923839Y-105375330D01*
X123389670Y-104841161D01*
X122761554Y-104421467D01*
X122063628Y-104132377D01*
X121322715Y-103985000D01*
X120567285Y-103985000D01*
X119826372Y-104132377D01*
X119128446Y-104421467D01*
X118500330Y-104841161D01*
X117966161Y-105375330D01*
X117729000Y-105730266D01*
X117729000Y-102806712D01*
X124067893Y-102806712D01*
X124175726Y-103081338D01*
X124482384Y-103232216D01*
X124812585Y-103320369D01*
X125153639Y-103342409D01*
X125492439Y-103297489D01*
X125815966Y-103187336D01*
X126014274Y-103081338D01*
X126122107Y-102806712D01*
X125095000Y-101779605D01*
X124067893Y-102806712D01*
X117729000Y-102806712D01*
X117729000Y-101658639D01*
X123352591Y-101658639D01*
X123397511Y-101997439D01*
X123507664Y-102320966D01*
X123613662Y-102519274D01*
X123888288Y-102627107D01*
X124915395Y-101600000D01*
X125274605Y-101600000D01*
X126301712Y-102627107D01*
X126576338Y-102519274D01*
X126727216Y-102212616D01*
X126795486Y-101956890D01*
X130003524Y-101956890D01*
X130048175Y-102104099D01*
X130173359Y-102366920D01*
X130347412Y-102600269D01*
X130563645Y-102795178D01*
X130813748Y-102944157D01*
X131088109Y-103041481D01*
X131318000Y-102920814D01*
X131318000Y-101727000D01*
X131572000Y-101727000D01*
X131572000Y-102920814D01*
X131801891Y-103041481D01*
X132076252Y-102944157D01*
X132326355Y-102795178D01*
X132542588Y-102600269D01*
X132716641Y-102366920D01*
X132841825Y-102104099D01*
X132886476Y-101956890D01*
X132765155Y-101727000D01*
X131572000Y-101727000D01*
X131318000Y-101727000D01*
X130124845Y-101727000D01*
X130003524Y-101956890D01*
X126795486Y-101956890D01*
X126815369Y-101882415D01*
X126837409Y-101541361D01*
X126792489Y-101202561D01*
X126682336Y-100879034D01*
X126576338Y-100680726D01*
X126301712Y-100572893D01*
X125274605Y-101600000D01*
X124915395Y-101600000D01*
X123888288Y-100572893D01*
X123613662Y-100680726D01*
X123462784Y-100987384D01*
X123374631Y-101317585D01*
X123352591Y-101658639D01*
X117729000Y-101658639D01*
X117729000Y-77299117D01*
X121455000Y-77299117D01*
X121455000Y-77640883D01*
X121521675Y-77976081D01*
X121652463Y-78291831D01*
X121842337Y-78575998D01*
X122055001Y-78788662D01*
X122055000Y-85954882D01*
X122049509Y-86010634D01*
X122055000Y-86066385D01*
X122071423Y-86233132D01*
X122136324Y-86447080D01*
X122241716Y-86644257D01*
X122383551Y-86817083D01*
X122426865Y-86852630D01*
X122697370Y-87123135D01*
X122732917Y-87166449D01*
X122905743Y-87308284D01*
X123102919Y-87413676D01*
X123275400Y-87465998D01*
X123316866Y-87478577D01*
X123539365Y-87500491D01*
X123595117Y-87495000D01*
X123776339Y-87495000D01*
X123911339Y-87630000D01*
X123747337Y-87794002D01*
X123557463Y-88078169D01*
X123426675Y-88393919D01*
X123360000Y-88729117D01*
X123360000Y-89070883D01*
X123426675Y-89406081D01*
X123557463Y-89721831D01*
X123747337Y-90005998D01*
X123911339Y-90170000D01*
X123747337Y-90334002D01*
X123557463Y-90618169D01*
X123426675Y-90933919D01*
X123360000Y-91269117D01*
X123360000Y-91610883D01*
X123426675Y-91946081D01*
X123557463Y-92261831D01*
X123747337Y-92545998D01*
X123911339Y-92710000D01*
X123747337Y-92874002D01*
X123557463Y-93158169D01*
X123426675Y-93473919D01*
X123360000Y-93809117D01*
X123360000Y-94150883D01*
X123426675Y-94486081D01*
X123557463Y-94801831D01*
X123747337Y-95085998D01*
X123911339Y-95250000D01*
X123747337Y-95414002D01*
X123557463Y-95698169D01*
X123426675Y-96013919D01*
X123360000Y-96349117D01*
X123360000Y-96690883D01*
X123426675Y-97026081D01*
X123557463Y-97341831D01*
X123747337Y-97625998D01*
X123911339Y-97790000D01*
X123747337Y-97954002D01*
X123557463Y-98238169D01*
X123426675Y-98553919D01*
X123360000Y-98889117D01*
X123360000Y-99230883D01*
X123426675Y-99566081D01*
X123557463Y-99881831D01*
X123747337Y-100165998D01*
X123989002Y-100407663D01*
X124270074Y-100595469D01*
X125095000Y-101420395D01*
X125919926Y-100595469D01*
X126200998Y-100407663D01*
X126442663Y-100165998D01*
X126623738Y-99895000D01*
X130216935Y-99895000D01*
X130291525Y-100006632D01*
X130498368Y-100213475D01*
X130680534Y-100335195D01*
X130563645Y-100404822D01*
X130347412Y-100599731D01*
X130173359Y-100833080D01*
X130048175Y-101095901D01*
X130003524Y-101243110D01*
X130124845Y-101473000D01*
X131318000Y-101473000D01*
X131318000Y-101453000D01*
X131572000Y-101453000D01*
X131572000Y-101473000D01*
X132765155Y-101473000D01*
X132886476Y-101243110D01*
X132841825Y-101095901D01*
X132716641Y-100833080D01*
X132542588Y-100599731D01*
X132326355Y-100404822D01*
X132209466Y-100335195D01*
X132391632Y-100213475D01*
X132539620Y-100065487D01*
X136259824Y-103785692D01*
X136220200Y-103984896D01*
X136220200Y-104295104D01*
X136280718Y-104599352D01*
X136399430Y-104885948D01*
X136571773Y-105143877D01*
X136791123Y-105363227D01*
X137049052Y-105535570D01*
X137335648Y-105654282D01*
X137639896Y-105714800D01*
X137950104Y-105714800D01*
X138254352Y-105654282D01*
X138540948Y-105535570D01*
X138798877Y-105363227D01*
X139018227Y-105143877D01*
X139190570Y-104885948D01*
X139309282Y-104599352D01*
X139369800Y-104295104D01*
X139369800Y-103984896D01*
X139309282Y-103680648D01*
X139190570Y-103394052D01*
X139018227Y-103136123D01*
X138798877Y-102916773D01*
X138728876Y-102870000D01*
X138798877Y-102823227D01*
X139018227Y-102603877D01*
X139190570Y-102345948D01*
X139309282Y-102059352D01*
X139369800Y-101755104D01*
X139369800Y-101444896D01*
X139309282Y-101140648D01*
X139190570Y-100854052D01*
X139018227Y-100596123D01*
X138798877Y-100376773D01*
X138728876Y-100330000D01*
X138798877Y-100283227D01*
X139018227Y-100063877D01*
X139190570Y-99805948D01*
X139309282Y-99519352D01*
X139369800Y-99215104D01*
X139369800Y-98904896D01*
X139309282Y-98600648D01*
X139190570Y-98314052D01*
X139018227Y-98056123D01*
X138798877Y-97836773D01*
X138662286Y-97745505D01*
X138707871Y-97612476D01*
X137795000Y-96699605D01*
X136882129Y-97612476D01*
X136927714Y-97745505D01*
X136791123Y-97836773D01*
X136571773Y-98056123D01*
X136399430Y-98314052D01*
X136280718Y-98600648D01*
X136230248Y-98854380D01*
X133960845Y-96584977D01*
X136213916Y-96584977D01*
X136256973Y-96892184D01*
X136359135Y-97185086D01*
X136444277Y-97344377D01*
X136702524Y-97432871D01*
X137615395Y-96520000D01*
X137974605Y-96520000D01*
X138887476Y-97432871D01*
X139145723Y-97344377D01*
X139280597Y-97065024D01*
X139358381Y-96764725D01*
X139376084Y-96455023D01*
X139333027Y-96147816D01*
X139230865Y-95854914D01*
X139145723Y-95695623D01*
X138887476Y-95607129D01*
X137974605Y-96520000D01*
X137615395Y-96520000D01*
X136702524Y-95607129D01*
X136444277Y-95695623D01*
X136309403Y-95974976D01*
X136231619Y-96275275D01*
X136213916Y-96584977D01*
X133960845Y-96584977D01*
X133334446Y-95958579D01*
X133308291Y-95926709D01*
X133181146Y-95822364D01*
X133036087Y-95744828D01*
X132878689Y-95697082D01*
X132756019Y-95685000D01*
X132756018Y-95685000D01*
X132715000Y-95680960D01*
X132673982Y-95685000D01*
X132673065Y-95685000D01*
X132598475Y-95573368D01*
X132391632Y-95366525D01*
X132217240Y-95250000D01*
X132391632Y-95133475D01*
X132598475Y-94926632D01*
X132673065Y-94815000D01*
X136458933Y-94815000D01*
X136571773Y-94983877D01*
X136791123Y-95203227D01*
X136927714Y-95294495D01*
X136882129Y-95427524D01*
X137795000Y-96340395D01*
X138707871Y-95427524D01*
X138662286Y-95294495D01*
X138798877Y-95203227D01*
X139018227Y-94983877D01*
X139190570Y-94725948D01*
X139309282Y-94439352D01*
X139369800Y-94135104D01*
X139369800Y-93824896D01*
X139309282Y-93520648D01*
X139190570Y-93234052D01*
X139018227Y-92976123D01*
X138798877Y-92756773D01*
X138728876Y-92710000D01*
X138798877Y-92663227D01*
X139018227Y-92443877D01*
X139190570Y-92185948D01*
X139309282Y-91899352D01*
X139369800Y-91595104D01*
X139369800Y-91284896D01*
X139309282Y-90980648D01*
X139190570Y-90694052D01*
X139018227Y-90436123D01*
X138798877Y-90216773D01*
X138540948Y-90044430D01*
X138254352Y-89925718D01*
X137950104Y-89865200D01*
X137639896Y-89865200D01*
X137335648Y-89925718D01*
X137049052Y-90044430D01*
X136791123Y-90216773D01*
X136571773Y-90436123D01*
X136458933Y-90605000D01*
X132673065Y-90605000D01*
X132598475Y-90493368D01*
X132391632Y-90286525D01*
X132217240Y-90170000D01*
X132391632Y-90053475D01*
X132598475Y-89846632D01*
X132760990Y-89603411D01*
X132872932Y-89333158D01*
X132930000Y-89046260D01*
X132930000Y-89020131D01*
X133858141Y-88091990D01*
X133901450Y-88056448D01*
X134043285Y-87883622D01*
X134148677Y-87686446D01*
X134213578Y-87472498D01*
X134230001Y-87305751D01*
X134235492Y-87249999D01*
X134230001Y-87194247D01*
X134230001Y-79810753D01*
X134235492Y-79755001D01*
X134217550Y-79572836D01*
X134418158Y-79532932D01*
X134688411Y-79420990D01*
X134931632Y-79258475D01*
X135138475Y-79051632D01*
X135300990Y-78808411D01*
X135360902Y-78663769D01*
X135690000Y-78992867D01*
X135690001Y-84345299D01*
X135650518Y-84349188D01*
X135530820Y-84385498D01*
X135420506Y-84444463D01*
X135323815Y-84523815D01*
X135244463Y-84620506D01*
X135185498Y-84730820D01*
X135149188Y-84850518D01*
X135136928Y-84975000D01*
X135136928Y-86475000D01*
X135149188Y-86599482D01*
X135185498Y-86719180D01*
X135244463Y-86829494D01*
X135323815Y-86926185D01*
X135420506Y-87005537D01*
X135530820Y-87064502D01*
X135650518Y-87100812D01*
X135775000Y-87113072D01*
X137275000Y-87113072D01*
X137399482Y-87100812D01*
X137519180Y-87064502D01*
X137629494Y-87005537D01*
X137726185Y-86926185D01*
X137805537Y-86829494D01*
X137864502Y-86719180D01*
X137900812Y-86599482D01*
X137911445Y-86491517D01*
X137989201Y-86607886D01*
X138182114Y-86800799D01*
X138408957Y-86952371D01*
X138661011Y-87056775D01*
X138928589Y-87110000D01*
X139201411Y-87110000D01*
X139468989Y-87056775D01*
X139721043Y-86952371D01*
X139947886Y-86800799D01*
X140066692Y-86681993D01*
X140827612Y-86681993D01*
X140893137Y-86920860D01*
X141140116Y-87036760D01*
X141404960Y-87102250D01*
X141677492Y-87114812D01*
X141947238Y-87073965D01*
X142203832Y-86981277D01*
X142316863Y-86920860D01*
X142382388Y-86681993D01*
X141605000Y-85904605D01*
X140827612Y-86681993D01*
X140066692Y-86681993D01*
X140140799Y-86607886D01*
X140292371Y-86381043D01*
X140333511Y-86281721D01*
X140348723Y-86323832D01*
X140409140Y-86436863D01*
X140648007Y-86502388D01*
X141425395Y-85725000D01*
X141784605Y-85725000D01*
X142561993Y-86502388D01*
X142800860Y-86436863D01*
X142916760Y-86189884D01*
X142982250Y-85925040D01*
X142994812Y-85652508D01*
X142984388Y-85583665D01*
X143980000Y-85583665D01*
X143980000Y-85866335D01*
X144035147Y-86143574D01*
X144143320Y-86404727D01*
X144300363Y-86639759D01*
X144500241Y-86839637D01*
X144580001Y-86892931D01*
X144580000Y-99018981D01*
X144575960Y-99060000D01*
X144580000Y-99101018D01*
X144592082Y-99223688D01*
X144639828Y-99381086D01*
X144717364Y-99526145D01*
X144821709Y-99653291D01*
X144853579Y-99679446D01*
X146419824Y-101245691D01*
X146380200Y-101444896D01*
X146380200Y-101755104D01*
X146440718Y-102059352D01*
X146559430Y-102345948D01*
X146731773Y-102603877D01*
X146951123Y-102823227D01*
X147021124Y-102870000D01*
X146951123Y-102916773D01*
X146731773Y-103136123D01*
X146559430Y-103394052D01*
X146440718Y-103680648D01*
X146380200Y-103984896D01*
X146380200Y-104295104D01*
X146440718Y-104599352D01*
X146559430Y-104885948D01*
X146731773Y-105143877D01*
X146951123Y-105363227D01*
X147209052Y-105535570D01*
X147495648Y-105654282D01*
X147799896Y-105714800D01*
X148110104Y-105714800D01*
X148414352Y-105654282D01*
X148700948Y-105535570D01*
X148958877Y-105363227D01*
X149178227Y-105143877D01*
X149291067Y-104975000D01*
X151419133Y-104975000D01*
X151618715Y-105174582D01*
X151600000Y-105268665D01*
X151600000Y-105551335D01*
X151655147Y-105828574D01*
X151763320Y-106089727D01*
X151920363Y-106324759D01*
X152120241Y-106524637D01*
X152355273Y-106681680D01*
X152616426Y-106789853D01*
X152893665Y-106845000D01*
X153176335Y-106845000D01*
X153453574Y-106789853D01*
X153714727Y-106681680D01*
X153949759Y-106524637D01*
X154149637Y-106324759D01*
X154306680Y-106089727D01*
X154414853Y-105828574D01*
X154470000Y-105551335D01*
X154470000Y-105268665D01*
X154414853Y-104991426D01*
X154306680Y-104730273D01*
X154149637Y-104495241D01*
X153949759Y-104295363D01*
X153714727Y-104138320D01*
X153453574Y-104030147D01*
X153176335Y-103975000D01*
X152893665Y-103975000D01*
X152799582Y-103993715D01*
X152384446Y-103578579D01*
X152358291Y-103546709D01*
X152231146Y-103442364D01*
X152086087Y-103364828D01*
X151928689Y-103317082D01*
X151806019Y-103305000D01*
X151806018Y-103305000D01*
X151765000Y-103300960D01*
X151723982Y-103305000D01*
X149291067Y-103305000D01*
X149178227Y-103136123D01*
X148958877Y-102916773D01*
X148888876Y-102870000D01*
X148958877Y-102823227D01*
X149178227Y-102603877D01*
X149350570Y-102345948D01*
X149469282Y-102059352D01*
X149529800Y-101755104D01*
X149529800Y-101444896D01*
X149469282Y-101140648D01*
X149350570Y-100854052D01*
X149178227Y-100596123D01*
X148958877Y-100376773D01*
X148888876Y-100330000D01*
X148958877Y-100283227D01*
X149178227Y-100063877D01*
X149350570Y-99805948D01*
X149469282Y-99519352D01*
X149529800Y-99215104D01*
X149529800Y-98904896D01*
X149469282Y-98600648D01*
X149350570Y-98314052D01*
X149178227Y-98056123D01*
X148958877Y-97836773D01*
X148822286Y-97745505D01*
X148867871Y-97612476D01*
X147955000Y-96699605D01*
X147042129Y-97612476D01*
X147087714Y-97745505D01*
X146951123Y-97836773D01*
X146731773Y-98056123D01*
X146559430Y-98314052D01*
X146440718Y-98600648D01*
X146390248Y-98854381D01*
X146250000Y-98714133D01*
X146250000Y-96584977D01*
X146373916Y-96584977D01*
X146416973Y-96892184D01*
X146519135Y-97185086D01*
X146604277Y-97344377D01*
X146862524Y-97432871D01*
X147775395Y-96520000D01*
X148134605Y-96520000D01*
X149047476Y-97432871D01*
X149305723Y-97344377D01*
X149440597Y-97065024D01*
X149518381Y-96764725D01*
X149536084Y-96455023D01*
X149493027Y-96147816D01*
X149390865Y-95854914D01*
X149305723Y-95695623D01*
X149047476Y-95607129D01*
X148134605Y-96520000D01*
X147775395Y-96520000D01*
X146862524Y-95607129D01*
X146604277Y-95695623D01*
X146469403Y-95974976D01*
X146391619Y-96275275D01*
X146373916Y-96584977D01*
X146250000Y-96584977D01*
X146250000Y-86892930D01*
X146329759Y-86839637D01*
X146529637Y-86639759D01*
X146686680Y-86404727D01*
X146794853Y-86143574D01*
X146850000Y-85866335D01*
X146850000Y-85583665D01*
X146794853Y-85306426D01*
X146686680Y-85045273D01*
X146529637Y-84810241D01*
X146329759Y-84610363D01*
X146094727Y-84453320D01*
X145833574Y-84345147D01*
X145556335Y-84290000D01*
X145273665Y-84290000D01*
X144996426Y-84345147D01*
X144735273Y-84453320D01*
X144500241Y-84610363D01*
X144300363Y-84810241D01*
X144143320Y-85045273D01*
X144035147Y-85306426D01*
X143980000Y-85583665D01*
X142984388Y-85583665D01*
X142953965Y-85382762D01*
X142861277Y-85126168D01*
X142800860Y-85013137D01*
X142561993Y-84947612D01*
X141784605Y-85725000D01*
X141425395Y-85725000D01*
X141411253Y-85710858D01*
X141590858Y-85531253D01*
X141605000Y-85545395D01*
X142382388Y-84768007D01*
X142316863Y-84529140D01*
X142069884Y-84413240D01*
X141805040Y-84347750D01*
X141631134Y-84339734D01*
X144355736Y-81615132D01*
X144500241Y-81759637D01*
X144735273Y-81916680D01*
X144996426Y-82024853D01*
X145273665Y-82080000D01*
X145556335Y-82080000D01*
X145833574Y-82024853D01*
X146094727Y-81916680D01*
X146329759Y-81759637D01*
X146529637Y-81559759D01*
X146686680Y-81324727D01*
X146794853Y-81063574D01*
X146850000Y-80786335D01*
X146850000Y-80503665D01*
X146794853Y-80226426D01*
X146686680Y-79965273D01*
X146529637Y-79730241D01*
X146329759Y-79530363D01*
X146094727Y-79373320D01*
X145833574Y-79265147D01*
X145556335Y-79210000D01*
X145273665Y-79210000D01*
X144996426Y-79265147D01*
X144735273Y-79373320D01*
X144500241Y-79530363D01*
X144300363Y-79730241D01*
X144247070Y-79810000D01*
X144186018Y-79810000D01*
X144145000Y-79805960D01*
X143981311Y-79822082D01*
X143823913Y-79869828D01*
X143678854Y-79947364D01*
X143653356Y-79968290D01*
X143551709Y-80051709D01*
X143525563Y-80083568D01*
X139257897Y-84351236D01*
X139201411Y-84340000D01*
X138928589Y-84340000D01*
X138661011Y-84393225D01*
X138408957Y-84497629D01*
X138182114Y-84649201D01*
X137989201Y-84842114D01*
X137911445Y-84958483D01*
X137900812Y-84850518D01*
X137864502Y-84730820D01*
X137805537Y-84620506D01*
X137726185Y-84523815D01*
X137629494Y-84444463D01*
X137519180Y-84385498D01*
X137399482Y-84349188D01*
X137360000Y-84345299D01*
X137360000Y-78688016D01*
X137364040Y-78646998D01*
X137347918Y-78483310D01*
X137330560Y-78426086D01*
X137300172Y-78325911D01*
X137222636Y-78180852D01*
X137163601Y-78108917D01*
X137144439Y-78085568D01*
X137144437Y-78085566D01*
X137118291Y-78053707D01*
X137086433Y-78027562D01*
X135252447Y-76193578D01*
X135226292Y-76161708D01*
X135099147Y-76057363D01*
X134954088Y-75979827D01*
X134796690Y-75932081D01*
X134674020Y-75919999D01*
X134674019Y-75919999D01*
X134633001Y-75915959D01*
X134591983Y-75919999D01*
X130296019Y-75919999D01*
X130255001Y-75915959D01*
X130213983Y-75919999D01*
X130213982Y-75919999D01*
X130091312Y-75932081D01*
X129933914Y-75979827D01*
X129788855Y-76057363D01*
X129704698Y-76126429D01*
X129661710Y-76161708D01*
X129635564Y-76193567D01*
X129212204Y-76616928D01*
X128055000Y-76616928D01*
X127930518Y-76629188D01*
X127810820Y-76665498D01*
X127700506Y-76724463D01*
X127603815Y-76803815D01*
X127524463Y-76900506D01*
X127465498Y-77010820D01*
X127429188Y-77130518D01*
X127416928Y-77255000D01*
X127416928Y-78955000D01*
X127429188Y-79079482D01*
X127465498Y-79199180D01*
X127524463Y-79309494D01*
X127603815Y-79406185D01*
X127700506Y-79485537D01*
X127810820Y-79544502D01*
X127930518Y-79580812D01*
X128055000Y-79593072D01*
X129755000Y-79593072D01*
X129879482Y-79580812D01*
X129999180Y-79544502D01*
X130109494Y-79485537D01*
X130206185Y-79406185D01*
X130285537Y-79309494D01*
X130344502Y-79199180D01*
X130366513Y-79126620D01*
X130498368Y-79258475D01*
X130741589Y-79420990D01*
X131011842Y-79532932D01*
X131298740Y-79590000D01*
X131324869Y-79590000D01*
X131960001Y-80225133D01*
X131960001Y-82333752D01*
X131730750Y-82335000D01*
X131572000Y-82493750D01*
X131572000Y-83693000D01*
X131592000Y-83693000D01*
X131592000Y-83947000D01*
X131572000Y-83947000D01*
X131572000Y-83967000D01*
X131318000Y-83967000D01*
X131318000Y-83947000D01*
X130118750Y-83947000D01*
X129960000Y-84105750D01*
X129956928Y-84670000D01*
X129969188Y-84794482D01*
X130005498Y-84914180D01*
X130064463Y-85024494D01*
X130143815Y-85121185D01*
X130240506Y-85200537D01*
X130286272Y-85225000D01*
X126751993Y-85225000D01*
X126784502Y-85164180D01*
X126820812Y-85044482D01*
X126833072Y-84920000D01*
X126830000Y-84105750D01*
X126671250Y-83947000D01*
X125222000Y-83947000D01*
X125222000Y-83967000D01*
X124968000Y-83967000D01*
X124968000Y-83947000D01*
X124948000Y-83947000D01*
X124948000Y-83693000D01*
X124968000Y-83693000D01*
X124968000Y-82243750D01*
X125222000Y-82243750D01*
X125222000Y-83693000D01*
X126671250Y-83693000D01*
X126830000Y-83534250D01*
X126832128Y-82970000D01*
X129956928Y-82970000D01*
X129960000Y-83534250D01*
X130118750Y-83693000D01*
X131318000Y-83693000D01*
X131318000Y-82493750D01*
X131159250Y-82335000D01*
X130595000Y-82331928D01*
X130470518Y-82344188D01*
X130350820Y-82380498D01*
X130240506Y-82439463D01*
X130143815Y-82518815D01*
X130064463Y-82615506D01*
X130005498Y-82725820D01*
X129969188Y-82845518D01*
X129956928Y-82970000D01*
X126832128Y-82970000D01*
X126833072Y-82720000D01*
X126820812Y-82595518D01*
X126784502Y-82475820D01*
X126725537Y-82365506D01*
X126646185Y-82268815D01*
X126549494Y-82189463D01*
X126439180Y-82130498D01*
X126319482Y-82094188D01*
X126195000Y-82081928D01*
X125380750Y-82085000D01*
X125222000Y-82243750D01*
X124968000Y-82243750D01*
X124809250Y-82085000D01*
X124325000Y-82083173D01*
X124325000Y-78788661D01*
X124537663Y-78575998D01*
X124727537Y-78291831D01*
X124858325Y-77976081D01*
X124925000Y-77640883D01*
X124925000Y-77299117D01*
X124858325Y-76963919D01*
X124727537Y-76648169D01*
X124537663Y-76364002D01*
X124295998Y-76122337D01*
X124011831Y-75932463D01*
X123696081Y-75801675D01*
X123360883Y-75735000D01*
X123019117Y-75735000D01*
X122683919Y-75801675D01*
X122368169Y-75932463D01*
X122084002Y-76122337D01*
X121842337Y-76364002D01*
X121652463Y-76648169D01*
X121521675Y-76963919D01*
X121455000Y-77299117D01*
X117729000Y-77299117D01*
X117729000Y-72437702D01*
X130631903Y-72437702D01*
X130703486Y-72681671D01*
X130958996Y-72802571D01*
X131233184Y-72871300D01*
X131515512Y-72885217D01*
X131795130Y-72843787D01*
X132061292Y-72748603D01*
X132186514Y-72681671D01*
X132258097Y-72437702D01*
X131445000Y-71624605D01*
X130631903Y-72437702D01*
X117729000Y-72437702D01*
X117729000Y-71515512D01*
X130004783Y-71515512D01*
X130046213Y-71795130D01*
X130141397Y-72061292D01*
X130208329Y-72186514D01*
X130452298Y-72258097D01*
X131265395Y-71445000D01*
X131624605Y-71445000D01*
X132437702Y-72258097D01*
X132681671Y-72186514D01*
X132802571Y-71931004D01*
X132871300Y-71656816D01*
X132885217Y-71374488D01*
X132843787Y-71094870D01*
X132748603Y-70828708D01*
X132681671Y-70703486D01*
X132437702Y-70631903D01*
X131624605Y-71445000D01*
X131265395Y-71445000D01*
X130452298Y-70631903D01*
X130208329Y-70703486D01*
X130087429Y-70958996D01*
X130018700Y-71233184D01*
X130004783Y-71515512D01*
X117729000Y-71515512D01*
X117729000Y-70452298D01*
X130631903Y-70452298D01*
X131445000Y-71265395D01*
X132258097Y-70452298D01*
X132186514Y-70208329D01*
X131931004Y-70087429D01*
X131656816Y-70018700D01*
X131374488Y-70004783D01*
X131094870Y-70046213D01*
X130828708Y-70141397D01*
X130703486Y-70208329D01*
X130631903Y-70452298D01*
X117729000Y-70452298D01*
X117729000Y-66210000D01*
X121451928Y-66210000D01*
X121451928Y-68410000D01*
X121464188Y-68534482D01*
X121500498Y-68654180D01*
X121559463Y-68764494D01*
X121638815Y-68861185D01*
X121735506Y-68940537D01*
X121845820Y-68999502D01*
X121965518Y-69035812D01*
X122090000Y-69048072D01*
X124290000Y-69048072D01*
X124414482Y-69035812D01*
X124534180Y-68999502D01*
X124644494Y-68940537D01*
X124741185Y-68861185D01*
X124820537Y-68764494D01*
X124879502Y-68654180D01*
X124915812Y-68534482D01*
X124928072Y-68410000D01*
X124928072Y-66210000D01*
X124915812Y-66085518D01*
X124879502Y-65965820D01*
X124820537Y-65855506D01*
X124741185Y-65758815D01*
X124644494Y-65679463D01*
X124534180Y-65620498D01*
X124419439Y-65585692D01*
X127416928Y-62588205D01*
X127416928Y-63715000D01*
X127429188Y-63839482D01*
X127465498Y-63959180D01*
X127524463Y-64069494D01*
X127603815Y-64166185D01*
X127700506Y-64245537D01*
X127810820Y-64304502D01*
X127930518Y-64340812D01*
X128055000Y-64353072D01*
X129755000Y-64353072D01*
X129879482Y-64340812D01*
X129999180Y-64304502D01*
X130109494Y-64245537D01*
X130206185Y-64166185D01*
X130285537Y-64069494D01*
X130310001Y-64023726D01*
X130310000Y-66604043D01*
X130290506Y-66614463D01*
X130193815Y-66693815D01*
X130114463Y-66790506D01*
X130055498Y-66900820D01*
X130019188Y-67020518D01*
X130006928Y-67145000D01*
X130006928Y-68745000D01*
X130019188Y-68869482D01*
X130055498Y-68989180D01*
X130114463Y-69099494D01*
X130193815Y-69196185D01*
X130290506Y-69275537D01*
X130400820Y-69334502D01*
X130520518Y-69370812D01*
X130645000Y-69383072D01*
X132245000Y-69383072D01*
X132369482Y-69370812D01*
X132489180Y-69334502D01*
X132599494Y-69275537D01*
X132696185Y-69196185D01*
X132775537Y-69099494D01*
X132789343Y-69073665D01*
X139535000Y-69073665D01*
X139535000Y-69356335D01*
X139590147Y-69633574D01*
X139698320Y-69894727D01*
X139855363Y-70129759D01*
X140055241Y-70329637D01*
X140290273Y-70486680D01*
X140551426Y-70594853D01*
X140828665Y-70650000D01*
X141111335Y-70650000D01*
X141205418Y-70631286D01*
X141620558Y-71046426D01*
X141646709Y-71078291D01*
X141773854Y-71182636D01*
X141918913Y-71260172D01*
X142076311Y-71307918D01*
X142198981Y-71320000D01*
X142198983Y-71320000D01*
X142239999Y-71324040D01*
X142281015Y-71320000D01*
X144247070Y-71320000D01*
X144300363Y-71399759D01*
X144500241Y-71599637D01*
X144735273Y-71756680D01*
X144996426Y-71864853D01*
X145273665Y-71920000D01*
X145556335Y-71920000D01*
X145833574Y-71864853D01*
X146094727Y-71756680D01*
X146329759Y-71599637D01*
X146529637Y-71399759D01*
X146582930Y-71320000D01*
X147913982Y-71320000D01*
X147955000Y-71324040D01*
X147996018Y-71320000D01*
X147996019Y-71320000D01*
X148118689Y-71307918D01*
X148276087Y-71260172D01*
X148421146Y-71182636D01*
X148548291Y-71078291D01*
X148574446Y-71046421D01*
X149277202Y-70343665D01*
X154140000Y-70343665D01*
X154140000Y-70626335D01*
X154195147Y-70903574D01*
X154303320Y-71164727D01*
X154460363Y-71399759D01*
X154660241Y-71599637D01*
X154895273Y-71756680D01*
X155156426Y-71864853D01*
X155433665Y-71920000D01*
X155716335Y-71920000D01*
X155993574Y-71864853D01*
X156254727Y-71756680D01*
X156489759Y-71599637D01*
X156689637Y-71399759D01*
X156846680Y-71164727D01*
X156954853Y-70903574D01*
X157010000Y-70626335D01*
X157010000Y-70343665D01*
X156954853Y-70066426D01*
X156846680Y-69805273D01*
X156689637Y-69570241D01*
X156489759Y-69370363D01*
X156254727Y-69213320D01*
X155993574Y-69105147D01*
X155716335Y-69050000D01*
X155433665Y-69050000D01*
X155156426Y-69105147D01*
X154895273Y-69213320D01*
X154660241Y-69370363D01*
X154460363Y-69570241D01*
X154303320Y-69805273D01*
X154195147Y-70066426D01*
X154140000Y-70343665D01*
X149277202Y-70343665D01*
X155297061Y-64323807D01*
X155428740Y-64350000D01*
X155721260Y-64350000D01*
X156008158Y-64292932D01*
X156278411Y-64180990D01*
X156521632Y-64018475D01*
X156728475Y-63811632D01*
X156890990Y-63568411D01*
X157002932Y-63298158D01*
X157060000Y-63011260D01*
X157060000Y-62718740D01*
X157002932Y-62431842D01*
X156890990Y-62161589D01*
X156728475Y-61918368D01*
X156521632Y-61711525D01*
X156278411Y-61549010D01*
X156008158Y-61437068D01*
X155721260Y-61380000D01*
X155428740Y-61380000D01*
X155141842Y-61437068D01*
X154871589Y-61549010D01*
X154628368Y-61711525D01*
X154496513Y-61843380D01*
X154474502Y-61770820D01*
X154415537Y-61660506D01*
X154336185Y-61563815D01*
X154239494Y-61484463D01*
X154129180Y-61425498D01*
X154009482Y-61389188D01*
X153885000Y-61376928D01*
X153320750Y-61380000D01*
X153162000Y-61538750D01*
X153162000Y-62738000D01*
X153182000Y-62738000D01*
X153182000Y-62992000D01*
X153162000Y-62992000D01*
X153162000Y-63012000D01*
X152908000Y-63012000D01*
X152908000Y-62992000D01*
X151708750Y-62992000D01*
X151550000Y-63150750D01*
X151546928Y-63715000D01*
X151559188Y-63839482D01*
X151595498Y-63959180D01*
X151654463Y-64069494D01*
X151733815Y-64166185D01*
X151830506Y-64245537D01*
X151940820Y-64304502D01*
X152060518Y-64340812D01*
X152185000Y-64353072D01*
X152749250Y-64350000D01*
X152907998Y-64191252D01*
X152907998Y-64350000D01*
X152909132Y-64350000D01*
X147609133Y-69650000D01*
X146582930Y-69650000D01*
X146529637Y-69570241D01*
X146329759Y-69370363D01*
X146094727Y-69213320D01*
X145833574Y-69105147D01*
X145556335Y-69050000D01*
X145273665Y-69050000D01*
X144996426Y-69105147D01*
X144735273Y-69213320D01*
X144500241Y-69370363D01*
X144300363Y-69570241D01*
X144247070Y-69650000D01*
X142585868Y-69650000D01*
X142386286Y-69450418D01*
X142405000Y-69356335D01*
X142405000Y-69073665D01*
X142349853Y-68796426D01*
X142241680Y-68535273D01*
X142084637Y-68300241D01*
X141884759Y-68100363D01*
X141649727Y-67943320D01*
X141388574Y-67835147D01*
X141111335Y-67780000D01*
X140828665Y-67780000D01*
X140551426Y-67835147D01*
X140290273Y-67943320D01*
X140055241Y-68100363D01*
X139855363Y-68300241D01*
X139698320Y-68535273D01*
X139590147Y-68796426D01*
X139535000Y-69073665D01*
X132789343Y-69073665D01*
X132834502Y-68989180D01*
X132870812Y-68869482D01*
X132883072Y-68745000D01*
X132883072Y-67145000D01*
X132870812Y-67020518D01*
X132834502Y-66900820D01*
X132775537Y-66790506D01*
X132696185Y-66693815D01*
X132599494Y-66614463D01*
X132580000Y-66604043D01*
X132580000Y-63830107D01*
X132598475Y-63811632D01*
X132720195Y-63629466D01*
X132789822Y-63746355D01*
X132984731Y-63962588D01*
X133218080Y-64136641D01*
X133480901Y-64261825D01*
X133628110Y-64306476D01*
X133858000Y-64185155D01*
X133858000Y-62992000D01*
X133838000Y-62992000D01*
X133838000Y-62738000D01*
X133858000Y-62738000D01*
X133858000Y-62718000D01*
X134112000Y-62718000D01*
X134112000Y-62738000D01*
X134132000Y-62738000D01*
X134132000Y-62992000D01*
X134112000Y-62992000D01*
X134112000Y-64185155D01*
X134341890Y-64306476D01*
X134489099Y-64261825D01*
X134751920Y-64136641D01*
X134985269Y-63962588D01*
X135180178Y-63746355D01*
X135249805Y-63629466D01*
X135371525Y-63811632D01*
X135578368Y-64018475D01*
X135821589Y-64180990D01*
X136091842Y-64292932D01*
X136378740Y-64350000D01*
X136671260Y-64350000D01*
X136958158Y-64292932D01*
X137228411Y-64180990D01*
X137471632Y-64018475D01*
X137678475Y-63811632D01*
X137840990Y-63568411D01*
X137952932Y-63298158D01*
X138010000Y-63011260D01*
X138010000Y-62718740D01*
X137952932Y-62431842D01*
X137919032Y-62349999D01*
X140119868Y-62349999D01*
X140755000Y-62985132D01*
X140755000Y-63011260D01*
X140812068Y-63298158D01*
X140924010Y-63568411D01*
X141086525Y-63811632D01*
X141293368Y-64018475D01*
X141536589Y-64180990D01*
X141806842Y-64292932D01*
X142093740Y-64350000D01*
X142386260Y-64350000D01*
X142673158Y-64292932D01*
X142943411Y-64180990D01*
X143186632Y-64018475D01*
X143393475Y-63811632D01*
X143510000Y-63637240D01*
X143626525Y-63811632D01*
X143833368Y-64018475D01*
X144076589Y-64180990D01*
X144346842Y-64292932D01*
X144633740Y-64350000D01*
X144926260Y-64350000D01*
X145213158Y-64292932D01*
X145483411Y-64180990D01*
X145726632Y-64018475D01*
X145858487Y-63886620D01*
X145880498Y-63959180D01*
X145939463Y-64069494D01*
X146018815Y-64166185D01*
X146115506Y-64245537D01*
X146225820Y-64304502D01*
X146345518Y-64340812D01*
X146470000Y-64353072D01*
X148170000Y-64353072D01*
X148294482Y-64340812D01*
X148414180Y-64304502D01*
X148524494Y-64245537D01*
X148621185Y-64166185D01*
X148700537Y-64069494D01*
X148759502Y-63959180D01*
X148795812Y-63839482D01*
X148808072Y-63715000D01*
X148808072Y-62015000D01*
X151546928Y-62015000D01*
X151550000Y-62579250D01*
X151708750Y-62738000D01*
X152908000Y-62738000D01*
X152908000Y-61538750D01*
X152749250Y-61380000D01*
X152185000Y-61376928D01*
X152060518Y-61389188D01*
X151940820Y-61425498D01*
X151830506Y-61484463D01*
X151733815Y-61563815D01*
X151654463Y-61660506D01*
X151595498Y-61770820D01*
X151559188Y-61890518D01*
X151546928Y-62015000D01*
X148808072Y-62015000D01*
X148795812Y-61890518D01*
X148759502Y-61770820D01*
X148700537Y-61660506D01*
X148621185Y-61563815D01*
X148524494Y-61484463D01*
X148414180Y-61425498D01*
X148294482Y-61389188D01*
X148170000Y-61376928D01*
X146470000Y-61376928D01*
X146345518Y-61389188D01*
X146225820Y-61425498D01*
X146115506Y-61484463D01*
X146018815Y-61563815D01*
X145939463Y-61660506D01*
X145880498Y-61770820D01*
X145858487Y-61843380D01*
X145726632Y-61711525D01*
X145483411Y-61549010D01*
X145213158Y-61437068D01*
X144926260Y-61380000D01*
X144633740Y-61380000D01*
X144346842Y-61437068D01*
X144076589Y-61549010D01*
X143833368Y-61711525D01*
X143626525Y-61918368D01*
X143510000Y-62092760D01*
X143393475Y-61918368D01*
X143186632Y-61711525D01*
X142943411Y-61549010D01*
X142673158Y-61437068D01*
X142386260Y-61380000D01*
X142360132Y-61380000D01*
X141431995Y-60451864D01*
X141396448Y-60408550D01*
X141223622Y-60266715D01*
X141026446Y-60161323D01*
X140812498Y-60096422D01*
X140645751Y-60079999D01*
X140645750Y-60079999D01*
X140589999Y-60074508D01*
X140534248Y-60079999D01*
X127240753Y-60079999D01*
X127185001Y-60074508D01*
X126962502Y-60096422D01*
X126748554Y-60161323D01*
X126551378Y-60266715D01*
X126421857Y-60373010D01*
X126421856Y-60373011D01*
X126378552Y-60408550D01*
X126343014Y-60451853D01*
X122426860Y-64368009D01*
X122383552Y-64403551D01*
X122241717Y-64576377D01*
X122225717Y-64606311D01*
X122136324Y-64773554D01*
X122071423Y-64987502D01*
X122049509Y-65210000D01*
X122055001Y-65265761D01*
X122055001Y-65575375D01*
X121965518Y-65584188D01*
X121845820Y-65620498D01*
X121735506Y-65679463D01*
X121638815Y-65758815D01*
X121559463Y-65855506D01*
X121500498Y-65965820D01*
X121464188Y-66085518D01*
X121451928Y-66210000D01*
X117729000Y-66210000D01*
X117729000Y-60409734D01*
X117966161Y-60764670D01*
X118500330Y-61298839D01*
X119128446Y-61718533D01*
X119826372Y-62007623D01*
X120567285Y-62155000D01*
X121322715Y-62155000D01*
X122063628Y-62007623D01*
X122761554Y-61718533D01*
X123389670Y-61298839D01*
X123923839Y-60764670D01*
X124343533Y-60136554D01*
X124632623Y-59438628D01*
X124780000Y-58697715D01*
X124780000Y-57942285D01*
X124632623Y-57201372D01*
X124343533Y-56503446D01*
X123923839Y-55875330D01*
X123389670Y-55341161D01*
X123245755Y-55245000D01*
X188644245Y-55245000D01*
X188500330Y-55341161D01*
G04 #@! TA.AperFunction,Conductor*
D29*
G36*
X188500330Y-55341161D02*
G01*
X187966161Y-55875330D01*
X187546467Y-56503446D01*
X187257377Y-57201372D01*
X187110000Y-57942285D01*
X187110000Y-58697715D01*
X187257377Y-59438628D01*
X187546467Y-60136554D01*
X187966161Y-60764670D01*
X188500330Y-61298839D01*
X189128446Y-61718533D01*
X189826372Y-62007623D01*
X190305864Y-62103000D01*
X186690000Y-62103000D01*
X186665224Y-62105440D01*
X186641399Y-62112667D01*
X186619443Y-62124403D01*
X186600197Y-62140197D01*
X186584403Y-62159443D01*
X186572667Y-62181399D01*
X186565440Y-62205224D01*
X186563000Y-62230000D01*
X186563000Y-63149805D01*
X186544482Y-63144188D01*
X186420000Y-63131928D01*
X184420000Y-63131928D01*
X184295518Y-63144188D01*
X184175820Y-63180498D01*
X184065506Y-63239463D01*
X183968815Y-63318815D01*
X183889463Y-63415506D01*
X183842441Y-63503476D01*
X183681101Y-63371068D01*
X183431808Y-63237818D01*
X183161309Y-63155764D01*
X182880000Y-63128057D01*
X182598692Y-63155764D01*
X182328193Y-63237818D01*
X182078900Y-63371068D01*
X181860393Y-63550392D01*
X181681068Y-63768899D01*
X181610000Y-63901858D01*
X181538932Y-63768899D01*
X181359608Y-63550392D01*
X181141101Y-63371068D01*
X180891808Y-63237818D01*
X180621309Y-63155764D01*
X180340000Y-63128057D01*
X180058692Y-63155764D01*
X179788193Y-63237818D01*
X179538900Y-63371068D01*
X179320393Y-63550392D01*
X179141068Y-63768899D01*
X179070000Y-63901858D01*
X178998932Y-63768899D01*
X178819608Y-63550392D01*
X178601101Y-63371068D01*
X178351808Y-63237818D01*
X178081309Y-63155764D01*
X177800000Y-63128057D01*
X177518692Y-63155764D01*
X177248193Y-63237818D01*
X176998900Y-63371068D01*
X176780393Y-63550392D01*
X176601068Y-63768899D01*
X176530000Y-63901858D01*
X176458932Y-63768899D01*
X176279608Y-63550392D01*
X176061101Y-63371068D01*
X175811808Y-63237818D01*
X175541309Y-63155764D01*
X175260000Y-63128057D01*
X174978692Y-63155764D01*
X174862022Y-63191155D01*
X174379436Y-62708569D01*
X174353281Y-62676699D01*
X174226136Y-62572354D01*
X174081077Y-62494818D01*
X173923679Y-62447072D01*
X173801009Y-62434990D01*
X173801008Y-62434990D01*
X173759990Y-62430950D01*
X173718972Y-62434990D01*
X167142526Y-62434990D01*
X167101518Y-62430951D01*
X167060510Y-62434990D01*
X167060500Y-62434990D01*
X166937830Y-62447072D01*
X166780432Y-62494818D01*
X166635373Y-62572354D01*
X166508228Y-62676699D01*
X166482078Y-62708563D01*
X156111642Y-73079000D01*
X145183016Y-73079000D01*
X145141998Y-73074960D01*
X145100980Y-73079000D01*
X145100979Y-73079000D01*
X144978309Y-73091082D01*
X144820911Y-73138828D01*
X144675852Y-73216364D01*
X144548707Y-73320709D01*
X144522561Y-73352568D01*
X141208573Y-76666558D01*
X141176709Y-76692708D01*
X141150561Y-76724570D01*
X141072363Y-76819854D01*
X140994827Y-76964913D01*
X140947081Y-77122311D01*
X140930959Y-77285999D01*
X140935000Y-77327027D01*
X140934999Y-77940000D01*
X140828665Y-77940000D01*
X140551426Y-77995147D01*
X140290273Y-78103320D01*
X140055241Y-78260363D01*
X139855363Y-78460241D01*
X139698320Y-78695273D01*
X139590147Y-78956426D01*
X139535000Y-79233665D01*
X139535000Y-79516335D01*
X139590147Y-79793574D01*
X139698320Y-80054727D01*
X139855363Y-80289759D01*
X140055241Y-80489637D01*
X140290273Y-80646680D01*
X140551426Y-80754853D01*
X140828665Y-80810000D01*
X141111335Y-80810000D01*
X141388574Y-80754853D01*
X141649727Y-80646680D01*
X141884759Y-80489637D01*
X142084637Y-80289759D01*
X142241680Y-80054727D01*
X142349853Y-79793574D01*
X142405000Y-79516335D01*
X142405000Y-79233665D01*
X142386396Y-79140137D01*
X142467635Y-79041147D01*
X142545171Y-78896088D01*
X142592917Y-78738690D01*
X142604999Y-78616020D01*
X142604999Y-78616010D01*
X142609038Y-78575002D01*
X142604999Y-78533994D01*
X142604999Y-77631866D01*
X144099040Y-76137826D01*
X144143320Y-76244727D01*
X144300363Y-76479759D01*
X144500241Y-76679637D01*
X144735273Y-76836680D01*
X144996426Y-76944853D01*
X145273665Y-77000000D01*
X145556335Y-77000000D01*
X145650418Y-76981285D01*
X147120001Y-78450869D01*
X147120000Y-90103933D01*
X146951123Y-90216773D01*
X146731773Y-90436123D01*
X146559430Y-90694052D01*
X146440718Y-90980648D01*
X146380200Y-91284896D01*
X146380200Y-91595104D01*
X146440718Y-91899352D01*
X146559430Y-92185948D01*
X146731773Y-92443877D01*
X146951123Y-92663227D01*
X147021124Y-92710000D01*
X146951123Y-92756773D01*
X146731773Y-92976123D01*
X146559430Y-93234052D01*
X146440718Y-93520648D01*
X146380200Y-93824896D01*
X146380200Y-94135104D01*
X146440718Y-94439352D01*
X146559430Y-94725948D01*
X146731773Y-94983877D01*
X146951123Y-95203227D01*
X147087714Y-95294495D01*
X147042129Y-95427524D01*
X147955000Y-96340395D01*
X148867871Y-95427524D01*
X148822286Y-95294495D01*
X148958877Y-95203227D01*
X149178227Y-94983877D01*
X149350570Y-94725948D01*
X149469282Y-94439352D01*
X149529800Y-94135104D01*
X149529800Y-93824896D01*
X149490176Y-93625691D01*
X149956227Y-93159640D01*
X149988092Y-93133490D01*
X150092437Y-93006345D01*
X150169973Y-92861286D01*
X150217719Y-92703888D01*
X150229801Y-92581218D01*
X150233841Y-92540200D01*
X150229801Y-92499181D01*
X150229801Y-85583665D01*
X154140000Y-85583665D01*
X154140000Y-85866335D01*
X154195147Y-86143574D01*
X154303320Y-86404727D01*
X154460363Y-86639759D01*
X154660241Y-86839637D01*
X154895273Y-86996680D01*
X155156426Y-87104853D01*
X155433665Y-87160000D01*
X155716335Y-87160000D01*
X155993574Y-87104853D01*
X156254727Y-86996680D01*
X156489759Y-86839637D01*
X156689637Y-86639759D01*
X156846680Y-86404727D01*
X156954853Y-86143574D01*
X157010000Y-85866335D01*
X157010000Y-85583665D01*
X156954853Y-85306426D01*
X156846680Y-85045273D01*
X156689637Y-84810241D01*
X156489759Y-84610363D01*
X156254727Y-84453320D01*
X155993574Y-84345147D01*
X155716335Y-84290000D01*
X155433665Y-84290000D01*
X155156426Y-84345147D01*
X154895273Y-84453320D01*
X154660241Y-84610363D01*
X154460363Y-84810241D01*
X154303320Y-85045273D01*
X154195147Y-85306426D01*
X154140000Y-85583665D01*
X150229801Y-85583665D01*
X150229801Y-80503665D01*
X154140000Y-80503665D01*
X154140000Y-80786335D01*
X154195147Y-81063574D01*
X154303320Y-81324727D01*
X154460363Y-81559759D01*
X154660241Y-81759637D01*
X154895273Y-81916680D01*
X155156426Y-82024853D01*
X155433665Y-82080000D01*
X155716335Y-82080000D01*
X155993574Y-82024853D01*
X156254727Y-81916680D01*
X156489759Y-81759637D01*
X156689637Y-81559759D01*
X156846680Y-81324727D01*
X156954853Y-81063574D01*
X157010000Y-80786335D01*
X157010000Y-80503665D01*
X156954853Y-80226426D01*
X156846680Y-79965273D01*
X156689637Y-79730241D01*
X156489759Y-79530363D01*
X156254727Y-79373320D01*
X155993574Y-79265147D01*
X155716335Y-79210000D01*
X155433665Y-79210000D01*
X155156426Y-79265147D01*
X154895273Y-79373320D01*
X154660241Y-79530363D01*
X154460363Y-79730241D01*
X154303320Y-79965273D01*
X154195147Y-80226426D01*
X154140000Y-80503665D01*
X150229801Y-80503665D01*
X150229801Y-78281066D01*
X150810868Y-77700001D01*
X160583981Y-77700001D01*
X160624999Y-77704041D01*
X160666017Y-77700001D01*
X160666018Y-77700001D01*
X160788688Y-77687919D01*
X160946086Y-77640173D01*
X161091145Y-77562637D01*
X161218290Y-77458292D01*
X161244445Y-77426422D01*
X172322022Y-66348845D01*
X172438691Y-66384236D01*
X172720000Y-66411943D01*
X173001308Y-66384236D01*
X173271807Y-66302182D01*
X173521100Y-66168932D01*
X173739607Y-65989608D01*
X173918932Y-65771101D01*
X173990000Y-65638142D01*
X174061068Y-65771100D01*
X174240392Y-65989607D01*
X174458899Y-66168932D01*
X174708192Y-66302182D01*
X174978691Y-66384236D01*
X175260000Y-66411943D01*
X175541308Y-66384236D01*
X175811807Y-66302182D01*
X176061100Y-66168932D01*
X176279607Y-65989608D01*
X176458932Y-65771101D01*
X176530000Y-65638142D01*
X176601068Y-65771100D01*
X176780392Y-65989607D01*
X176998899Y-66168932D01*
X177248192Y-66302182D01*
X177518691Y-66384236D01*
X177800000Y-66411943D01*
X178081308Y-66384236D01*
X178197977Y-66348845D01*
X179085563Y-67236432D01*
X179111709Y-67268291D01*
X179143568Y-67294437D01*
X179143570Y-67294439D01*
X179238854Y-67372636D01*
X179383913Y-67450172D01*
X179541311Y-67497918D01*
X179705000Y-67514040D01*
X179746018Y-67510000D01*
X183169133Y-67510000D01*
X184585001Y-68925870D01*
X184585000Y-84109132D01*
X184099152Y-84594980D01*
X166852584Y-84594980D01*
X166811566Y-84590940D01*
X166770547Y-84594980D01*
X166647877Y-84607062D01*
X166490479Y-84654808D01*
X166345420Y-84732344D01*
X166218275Y-84836689D01*
X166192129Y-84868548D01*
X165078554Y-85982125D01*
X165046690Y-86008275D01*
X164997182Y-86068601D01*
X164942344Y-86135421D01*
X164864808Y-86280480D01*
X164817062Y-86437878D01*
X164800940Y-86601566D01*
X164804981Y-86642594D01*
X164804980Y-87379151D01*
X158350418Y-93833715D01*
X158256335Y-93815000D01*
X157973665Y-93815000D01*
X157696426Y-93870147D01*
X157435273Y-93978320D01*
X157200241Y-94135363D01*
X157000363Y-94335241D01*
X156843320Y-94570273D01*
X156735147Y-94831426D01*
X156680000Y-95108665D01*
X156680000Y-95391335D01*
X156735147Y-95668574D01*
X156754378Y-95715001D01*
X154680869Y-95715001D01*
X154451286Y-95485418D01*
X154470000Y-95391335D01*
X154470000Y-95108665D01*
X154414853Y-94831426D01*
X154306680Y-94570273D01*
X154149637Y-94335241D01*
X153949759Y-94135363D01*
X153714727Y-93978320D01*
X153453574Y-93870147D01*
X153176335Y-93815000D01*
X152893665Y-93815000D01*
X152616426Y-93870147D01*
X152355273Y-93978320D01*
X152120241Y-94135363D01*
X151920363Y-94335241D01*
X151763320Y-94570273D01*
X151655147Y-94831426D01*
X151600000Y-95108665D01*
X151600000Y-95391335D01*
X151655147Y-95668574D01*
X151763320Y-95929727D01*
X151920363Y-96164759D01*
X152120241Y-96364637D01*
X152355273Y-96521680D01*
X152616426Y-96629853D01*
X152893665Y-96685000D01*
X153176335Y-96685000D01*
X153270418Y-96666286D01*
X153715559Y-97111427D01*
X153741710Y-97143292D01*
X153846316Y-97229140D01*
X153868855Y-97247637D01*
X154013914Y-97325173D01*
X154171312Y-97372919D01*
X154335000Y-97389041D01*
X154376019Y-97385001D01*
X158697983Y-97385001D01*
X158739001Y-97389041D01*
X158780019Y-97385001D01*
X158780020Y-97385001D01*
X158902690Y-97372919D01*
X159060088Y-97325173D01*
X159205147Y-97247637D01*
X159332292Y-97143292D01*
X159358447Y-97111422D01*
X161059999Y-95409870D01*
X161060000Y-104068970D01*
X161055959Y-104109999D01*
X161072081Y-104273687D01*
X161119827Y-104431085D01*
X161196752Y-104575000D01*
X161197364Y-104576145D01*
X161301709Y-104703290D01*
X161333573Y-104729440D01*
X161778715Y-105174582D01*
X161760000Y-105268665D01*
X161760000Y-105551335D01*
X161815147Y-105828574D01*
X161834378Y-105875001D01*
X159760869Y-105875001D01*
X159531286Y-105645418D01*
X159550000Y-105551335D01*
X159550000Y-105268665D01*
X159494853Y-104991426D01*
X159386680Y-104730273D01*
X159229637Y-104495241D01*
X159029759Y-104295363D01*
X158794727Y-104138320D01*
X158533574Y-104030147D01*
X158256335Y-103975000D01*
X157973665Y-103975000D01*
X157696426Y-104030147D01*
X157435273Y-104138320D01*
X157200241Y-104295363D01*
X157000363Y-104495241D01*
X156843320Y-104730273D01*
X156735147Y-104991426D01*
X156680000Y-105268665D01*
X156680000Y-105551335D01*
X156735147Y-105828574D01*
X156843320Y-106089727D01*
X157000363Y-106324759D01*
X157200241Y-106524637D01*
X157435273Y-106681680D01*
X157696426Y-106789853D01*
X157973665Y-106845000D01*
X158256335Y-106845000D01*
X158350418Y-106826286D01*
X158795559Y-107271427D01*
X158821710Y-107303292D01*
X158929634Y-107391863D01*
X158948855Y-107407637D01*
X159093914Y-107485173D01*
X159251312Y-107532919D01*
X159415000Y-107549041D01*
X159456019Y-107545001D01*
X165917981Y-107545001D01*
X165958999Y-107549041D01*
X166000017Y-107545001D01*
X166000018Y-107545001D01*
X166122688Y-107532919D01*
X166280086Y-107485173D01*
X166425145Y-107407637D01*
X166552290Y-107303292D01*
X166578445Y-107271422D01*
X167141208Y-106708659D01*
X167139188Y-106752492D01*
X167180035Y-107022238D01*
X167272723Y-107278832D01*
X167333140Y-107391863D01*
X167572007Y-107457388D01*
X168349395Y-106680000D01*
X168708605Y-106680000D01*
X169485993Y-107457388D01*
X169724860Y-107391863D01*
X169840760Y-107144884D01*
X169906250Y-106880040D01*
X169918812Y-106607508D01*
X169877965Y-106337762D01*
X169785277Y-106081168D01*
X169724860Y-105968137D01*
X169485993Y-105902612D01*
X168708605Y-106680000D01*
X168349395Y-106680000D01*
X168335253Y-106665858D01*
X168514858Y-106486253D01*
X168529000Y-106500395D01*
X169306388Y-105723007D01*
X169240863Y-105484140D01*
X169082523Y-105409836D01*
X169185043Y-105367371D01*
X169411886Y-105215799D01*
X169604799Y-105022886D01*
X169756371Y-104796043D01*
X169860775Y-104543989D01*
X169914000Y-104276411D01*
X169914000Y-104003589D01*
X169860775Y-103736011D01*
X169756371Y-103483957D01*
X169604799Y-103257114D01*
X169411886Y-103064201D01*
X169295517Y-102986445D01*
X169403482Y-102975812D01*
X169523180Y-102939502D01*
X169633494Y-102880537D01*
X169730185Y-102801185D01*
X169809537Y-102704494D01*
X169868502Y-102594180D01*
X169904812Y-102474482D01*
X169908701Y-102435000D01*
X173644133Y-102435000D01*
X173721928Y-102512795D01*
X173721928Y-103770000D01*
X173734188Y-103894482D01*
X173770498Y-104014180D01*
X173829463Y-104124494D01*
X173908815Y-104221185D01*
X174005506Y-104300537D01*
X174115820Y-104359502D01*
X174134127Y-104365056D01*
X174067688Y-104431495D01*
X173899701Y-104682905D01*
X173783989Y-104962257D01*
X173725000Y-105258816D01*
X173725000Y-105561184D01*
X173783989Y-105857743D01*
X173899701Y-106137095D01*
X174067688Y-106388505D01*
X174281495Y-106602312D01*
X174532905Y-106770299D01*
X174812257Y-106886011D01*
X175108816Y-106945000D01*
X175411184Y-106945000D01*
X175707743Y-106886011D01*
X175987095Y-106770299D01*
X176238505Y-106602312D01*
X176452312Y-106388505D01*
X176548199Y-106245000D01*
X179807070Y-106245000D01*
X179860363Y-106324759D01*
X180060241Y-106524637D01*
X180295273Y-106681680D01*
X180556426Y-106789853D01*
X180833665Y-106845000D01*
X181116335Y-106845000D01*
X181393574Y-106789853D01*
X181654727Y-106681680D01*
X181889759Y-106524637D01*
X182089637Y-106324759D01*
X182246680Y-106089727D01*
X182354853Y-105828574D01*
X182410000Y-105551335D01*
X182410000Y-105268665D01*
X182354853Y-104991426D01*
X182246680Y-104730273D01*
X182089637Y-104495241D01*
X181889759Y-104295363D01*
X181654727Y-104138320D01*
X181393574Y-104030147D01*
X181116335Y-103975000D01*
X180833665Y-103975000D01*
X180556426Y-104030147D01*
X180295273Y-104138320D01*
X180060241Y-104295363D01*
X179860363Y-104495241D01*
X179807070Y-104575000D01*
X176548199Y-104575000D01*
X176452312Y-104431495D01*
X176385873Y-104365056D01*
X176404180Y-104359502D01*
X176514494Y-104300537D01*
X176611185Y-104221185D01*
X176690537Y-104124494D01*
X176749502Y-104014180D01*
X176785812Y-103894482D01*
X176798072Y-103770000D01*
X176798072Y-101970000D01*
X176785812Y-101845518D01*
X176749502Y-101725820D01*
X176690537Y-101615506D01*
X176611185Y-101518815D01*
X176514494Y-101439463D01*
X176404180Y-101380498D01*
X176284482Y-101344188D01*
X176160000Y-101331928D01*
X174902795Y-101331928D01*
X174609446Y-101038579D01*
X174583291Y-101006709D01*
X174456146Y-100902364D01*
X174311087Y-100824828D01*
X174153689Y-100777082D01*
X174031019Y-100765000D01*
X174031018Y-100765000D01*
X173990000Y-100760960D01*
X173948982Y-100765000D01*
X169908701Y-100765000D01*
X169904812Y-100725518D01*
X169868502Y-100605820D01*
X169809537Y-100495506D01*
X169730185Y-100398815D01*
X169633494Y-100319463D01*
X169523180Y-100260498D01*
X169403482Y-100224188D01*
X169279000Y-100211928D01*
X167779000Y-100211928D01*
X167654518Y-100224188D01*
X167534820Y-100260498D01*
X167424506Y-100319463D01*
X167327815Y-100398815D01*
X167248463Y-100495506D01*
X167189498Y-100605820D01*
X167153188Y-100725518D01*
X167140928Y-100850000D01*
X167140928Y-102350000D01*
X167153188Y-102474482D01*
X167189498Y-102594180D01*
X167248463Y-102704494D01*
X167327815Y-102801185D01*
X167424506Y-102880537D01*
X167534820Y-102939502D01*
X167654518Y-102975812D01*
X167762483Y-102986445D01*
X167646114Y-103064201D01*
X167453201Y-103257114D01*
X167301629Y-103483957D01*
X167197225Y-103736011D01*
X167144000Y-104003589D01*
X167144000Y-104276411D01*
X167155236Y-104332897D01*
X165613132Y-105875001D01*
X164555622Y-105875001D01*
X164574853Y-105828574D01*
X164630000Y-105551335D01*
X164630000Y-105268665D01*
X164574853Y-104991426D01*
X164466680Y-104730273D01*
X164309637Y-104495241D01*
X164109759Y-104295363D01*
X163874727Y-104138320D01*
X163613574Y-104030147D01*
X163336335Y-103975000D01*
X163053665Y-103975000D01*
X162959582Y-103993715D01*
X162729999Y-103764132D01*
X162729999Y-99381993D01*
X167751612Y-99381993D01*
X167817137Y-99620860D01*
X168064116Y-99736760D01*
X168328960Y-99802250D01*
X168601492Y-99814812D01*
X168871238Y-99773965D01*
X169127832Y-99681277D01*
X169240863Y-99620860D01*
X169306388Y-99381993D01*
X168529000Y-98604605D01*
X167751612Y-99381993D01*
X162729999Y-99381993D01*
X162729999Y-98497492D01*
X167139188Y-98497492D01*
X167180035Y-98767238D01*
X167272723Y-99023832D01*
X167333140Y-99136863D01*
X167572007Y-99202388D01*
X168349395Y-98425000D01*
X168708605Y-98425000D01*
X169485993Y-99202388D01*
X169724860Y-99136863D01*
X169840760Y-98889884D01*
X169906250Y-98625040D01*
X169918812Y-98352508D01*
X169877965Y-98082762D01*
X169785277Y-97826168D01*
X169724860Y-97713137D01*
X169485993Y-97647612D01*
X168708605Y-98425000D01*
X168349395Y-98425000D01*
X167572007Y-97647612D01*
X167333140Y-97713137D01*
X167217240Y-97960116D01*
X167151750Y-98224960D01*
X167139188Y-98497492D01*
X162729999Y-98497492D01*
X162729999Y-96610622D01*
X162776426Y-96629853D01*
X163053665Y-96685000D01*
X163336335Y-96685000D01*
X163613574Y-96629853D01*
X163874727Y-96521680D01*
X164109759Y-96364637D01*
X164309637Y-96164759D01*
X164362930Y-96085000D01*
X167156649Y-96085000D01*
X167197225Y-96288989D01*
X167301629Y-96541043D01*
X167453201Y-96767886D01*
X167646114Y-96960799D01*
X167872957Y-97112371D01*
X167972279Y-97153511D01*
X167930168Y-97168723D01*
X167817137Y-97229140D01*
X167751612Y-97468007D01*
X168529000Y-98245395D01*
X169306388Y-97468007D01*
X169240863Y-97229140D01*
X169082523Y-97154836D01*
X169185043Y-97112371D01*
X169411886Y-96960799D01*
X169604799Y-96767886D01*
X169756371Y-96541043D01*
X169860775Y-96288989D01*
X169914000Y-96021411D01*
X169914000Y-95748589D01*
X169860775Y-95481011D01*
X169756371Y-95228957D01*
X169604799Y-95002114D01*
X169411886Y-94809201D01*
X169295517Y-94731445D01*
X169403482Y-94720812D01*
X169523180Y-94684502D01*
X169633494Y-94625537D01*
X169730185Y-94546185D01*
X169809537Y-94449494D01*
X169868502Y-94339180D01*
X169904812Y-94219482D01*
X169908701Y-94180000D01*
X173644133Y-94180000D01*
X173721928Y-94257795D01*
X173721928Y-95515000D01*
X173734188Y-95639482D01*
X173770498Y-95759180D01*
X173829463Y-95869494D01*
X173908815Y-95966185D01*
X174005506Y-96045537D01*
X174115820Y-96104502D01*
X174134127Y-96110056D01*
X174067688Y-96176495D01*
X173899701Y-96427905D01*
X173783989Y-96707257D01*
X173725000Y-97003816D01*
X173725000Y-97306184D01*
X173783989Y-97602743D01*
X173899701Y-97882095D01*
X174067688Y-98133505D01*
X174281495Y-98347312D01*
X174532905Y-98515299D01*
X174812257Y-98631011D01*
X175108816Y-98690000D01*
X175411184Y-98690000D01*
X175707743Y-98631011D01*
X175987095Y-98515299D01*
X176238505Y-98347312D01*
X176452312Y-98133505D01*
X176548199Y-97990000D01*
X177454133Y-97990000D01*
X184638714Y-105174583D01*
X184620000Y-105268665D01*
X184620000Y-105551335D01*
X184675147Y-105828574D01*
X184783320Y-106089727D01*
X184940363Y-106324759D01*
X185140241Y-106524637D01*
X185375273Y-106681680D01*
X185636426Y-106789853D01*
X185913665Y-106845000D01*
X186196335Y-106845000D01*
X186473574Y-106789853D01*
X186734727Y-106681680D01*
X186969759Y-106524637D01*
X187169637Y-106324759D01*
X187326680Y-106089727D01*
X187434853Y-105828574D01*
X187490000Y-105551335D01*
X187490000Y-105268665D01*
X187434853Y-104991426D01*
X187326680Y-104730273D01*
X187169637Y-104495241D01*
X186969759Y-104295363D01*
X186734727Y-104138320D01*
X186473574Y-104030147D01*
X186196335Y-103975000D01*
X185913665Y-103975000D01*
X185819583Y-103993714D01*
X180465868Y-98640000D01*
X189646928Y-98640000D01*
X189659188Y-98764482D01*
X189695498Y-98884180D01*
X189754463Y-98994494D01*
X189833815Y-99091185D01*
X189930506Y-99170537D01*
X190040820Y-99229502D01*
X190160518Y-99265812D01*
X190285000Y-99278072D01*
X190849250Y-99275000D01*
X191008000Y-99116250D01*
X191008000Y-97917000D01*
X191262000Y-97917000D01*
X191262000Y-99116250D01*
X191420750Y-99275000D01*
X191985000Y-99278072D01*
X192109482Y-99265812D01*
X192229180Y-99229502D01*
X192339494Y-99170537D01*
X192436185Y-99091185D01*
X192515537Y-98994494D01*
X192574502Y-98884180D01*
X192610812Y-98764482D01*
X192623072Y-98640000D01*
X192620000Y-98075750D01*
X192461250Y-97917000D01*
X191262000Y-97917000D01*
X191008000Y-97917000D01*
X189808750Y-97917000D01*
X189650000Y-98075750D01*
X189646928Y-98640000D01*
X180465868Y-98640000D01*
X178765868Y-96940000D01*
X189646928Y-96940000D01*
X189650000Y-97504250D01*
X189808750Y-97663000D01*
X191008000Y-97663000D01*
X191008000Y-97643000D01*
X191262000Y-97643000D01*
X191262000Y-97663000D01*
X192461250Y-97663000D01*
X192620000Y-97504250D01*
X192623072Y-96940000D01*
X192610812Y-96815518D01*
X192574502Y-96695820D01*
X192515537Y-96585506D01*
X192436185Y-96488815D01*
X192339494Y-96409463D01*
X192229180Y-96350498D01*
X192156620Y-96328487D01*
X192288475Y-96196632D01*
X192450990Y-95953411D01*
X192562932Y-95683158D01*
X192620000Y-95396260D01*
X192620000Y-95103740D01*
X192562932Y-94816842D01*
X192450990Y-94546589D01*
X192288475Y-94303368D01*
X192081632Y-94096525D01*
X191838411Y-93934010D01*
X191568158Y-93822068D01*
X191281260Y-93765000D01*
X190988740Y-93765000D01*
X190701842Y-93822068D01*
X190431589Y-93934010D01*
X190188368Y-94096525D01*
X189981525Y-94303368D01*
X189819010Y-94546589D01*
X189707068Y-94816842D01*
X189650000Y-95103740D01*
X189650000Y-95396260D01*
X189707068Y-95683158D01*
X189819010Y-95953411D01*
X189981525Y-96196632D01*
X190113380Y-96328487D01*
X190040820Y-96350498D01*
X189930506Y-96409463D01*
X189833815Y-96488815D01*
X189754463Y-96585506D01*
X189695498Y-96695820D01*
X189659188Y-96815518D01*
X189646928Y-96940000D01*
X178765868Y-96940000D01*
X178419446Y-96593579D01*
X178393291Y-96561709D01*
X178266146Y-96457364D01*
X178121087Y-96379828D01*
X177963689Y-96332082D01*
X177841019Y-96320000D01*
X177841018Y-96320000D01*
X177800000Y-96315960D01*
X177758982Y-96320000D01*
X176548199Y-96320000D01*
X176452312Y-96176495D01*
X176385873Y-96110056D01*
X176404180Y-96104502D01*
X176514494Y-96045537D01*
X176611185Y-95966185D01*
X176690537Y-95869494D01*
X176749502Y-95759180D01*
X176785812Y-95639482D01*
X176798072Y-95515000D01*
X176798072Y-95108665D01*
X179540000Y-95108665D01*
X179540000Y-95391335D01*
X179595147Y-95668574D01*
X179703320Y-95929727D01*
X179860363Y-96164759D01*
X180060241Y-96364637D01*
X180295273Y-96521680D01*
X180556426Y-96629853D01*
X180833665Y-96685000D01*
X181116335Y-96685000D01*
X181393574Y-96629853D01*
X181654727Y-96521680D01*
X181889759Y-96364637D01*
X182089637Y-96164759D01*
X182246680Y-95929727D01*
X182354853Y-95668574D01*
X182410000Y-95391335D01*
X182410000Y-95108665D01*
X184620000Y-95108665D01*
X184620000Y-95391335D01*
X184675147Y-95668574D01*
X184783320Y-95929727D01*
X184940363Y-96164759D01*
X185140241Y-96364637D01*
X185375273Y-96521680D01*
X185636426Y-96629853D01*
X185913665Y-96685000D01*
X186196335Y-96685000D01*
X186473574Y-96629853D01*
X186734727Y-96521680D01*
X186969759Y-96364637D01*
X187169637Y-96164759D01*
X187326680Y-95929727D01*
X187434853Y-95668574D01*
X187490000Y-95391335D01*
X187490000Y-95108665D01*
X187434853Y-94831426D01*
X187326680Y-94570273D01*
X187169637Y-94335241D01*
X186969759Y-94135363D01*
X186734727Y-93978320D01*
X186473574Y-93870147D01*
X186196335Y-93815000D01*
X185913665Y-93815000D01*
X185636426Y-93870147D01*
X185375273Y-93978320D01*
X185140241Y-94135363D01*
X184940363Y-94335241D01*
X184783320Y-94570273D01*
X184675147Y-94831426D01*
X184620000Y-95108665D01*
X182410000Y-95108665D01*
X182354853Y-94831426D01*
X182246680Y-94570273D01*
X182089637Y-94335241D01*
X181889759Y-94135363D01*
X181654727Y-93978320D01*
X181393574Y-93870147D01*
X181116335Y-93815000D01*
X180833665Y-93815000D01*
X180556426Y-93870147D01*
X180295273Y-93978320D01*
X180060241Y-94135363D01*
X179860363Y-94335241D01*
X179703320Y-94570273D01*
X179595147Y-94831426D01*
X179540000Y-95108665D01*
X176798072Y-95108665D01*
X176798072Y-93715000D01*
X176785812Y-93590518D01*
X176749502Y-93470820D01*
X176690537Y-93360506D01*
X176611185Y-93263815D01*
X176514494Y-93184463D01*
X176404180Y-93125498D01*
X176284482Y-93089188D01*
X176160000Y-93076928D01*
X174902795Y-93076928D01*
X174609446Y-92783579D01*
X174583291Y-92751709D01*
X174456146Y-92647364D01*
X174311087Y-92569828D01*
X174153689Y-92522082D01*
X174031019Y-92510000D01*
X174031018Y-92510000D01*
X173990000Y-92505960D01*
X173948982Y-92510000D01*
X169908701Y-92510000D01*
X169904812Y-92470518D01*
X169868502Y-92350820D01*
X169809537Y-92240506D01*
X169730185Y-92143815D01*
X169633494Y-92064463D01*
X169523180Y-92005498D01*
X169403482Y-91969188D01*
X169279000Y-91956928D01*
X167779000Y-91956928D01*
X167654518Y-91969188D01*
X167534820Y-92005498D01*
X167424506Y-92064463D01*
X167327815Y-92143815D01*
X167248463Y-92240506D01*
X167189498Y-92350820D01*
X167153188Y-92470518D01*
X167140928Y-92595000D01*
X167140928Y-94095000D01*
X167153188Y-94219482D01*
X167189498Y-94339180D01*
X167230025Y-94415000D01*
X164362930Y-94415000D01*
X164309637Y-94335241D01*
X164109759Y-94135363D01*
X163874727Y-93978320D01*
X163767825Y-93934040D01*
X167736856Y-89965010D01*
X176258972Y-89965010D01*
X176299990Y-89969050D01*
X176341008Y-89965010D01*
X176341009Y-89965010D01*
X176463679Y-89952928D01*
X176621077Y-89905182D01*
X176766136Y-89827646D01*
X176893281Y-89723301D01*
X176919436Y-89691431D01*
X177402022Y-89208845D01*
X177518691Y-89244236D01*
X177800000Y-89271943D01*
X178081308Y-89244236D01*
X178351807Y-89162182D01*
X178601100Y-89028932D01*
X178819607Y-88849608D01*
X178998932Y-88631101D01*
X179070000Y-88498142D01*
X179141068Y-88631100D01*
X179320392Y-88849607D01*
X179538899Y-89028932D01*
X179788192Y-89162182D01*
X180058691Y-89244236D01*
X180340000Y-89271943D01*
X180621308Y-89244236D01*
X180891807Y-89162182D01*
X181141100Y-89028932D01*
X181359607Y-88849608D01*
X181538932Y-88631101D01*
X181610000Y-88498142D01*
X181681068Y-88631100D01*
X181860392Y-88849607D01*
X182078899Y-89028932D01*
X182328192Y-89162182D01*
X182598691Y-89244236D01*
X182880000Y-89271943D01*
X183161308Y-89244236D01*
X183431807Y-89162182D01*
X183681100Y-89028932D01*
X183899607Y-88849608D01*
X184078932Y-88631101D01*
X184150000Y-88498142D01*
X184221068Y-88631100D01*
X184400392Y-88849607D01*
X184618899Y-89028932D01*
X184868192Y-89162182D01*
X185138691Y-89244236D01*
X185420000Y-89271943D01*
X185701308Y-89244236D01*
X185971807Y-89162182D01*
X186221100Y-89028932D01*
X186439607Y-88849608D01*
X186563000Y-88699254D01*
X186563000Y-89535000D01*
X186565045Y-89557697D01*
X186571874Y-89581639D01*
X186583242Y-89603788D01*
X186598713Y-89623294D01*
X186617693Y-89639406D01*
X186639451Y-89651507D01*
X186663151Y-89659130D01*
X186687884Y-89661982D01*
X194183000Y-89786901D01*
X194183000Y-105763192D01*
X193923839Y-105375330D01*
X193389670Y-104841161D01*
X192761554Y-104421467D01*
X192063628Y-104132377D01*
X191322715Y-103985000D01*
X190567285Y-103985000D01*
X189826372Y-104132377D01*
X189128446Y-104421467D01*
X188500330Y-104841161D01*
X187966161Y-105375330D01*
X187546467Y-106003446D01*
X187257377Y-106701372D01*
X187110000Y-107442285D01*
X187110000Y-108197715D01*
X187257377Y-108938628D01*
X187546467Y-109636554D01*
X187966161Y-110264670D01*
X188500330Y-110798839D01*
X188988464Y-111125000D01*
X122901536Y-111125000D01*
X123389670Y-110798839D01*
X123923839Y-110264670D01*
X124343533Y-109636554D01*
X124632623Y-108938628D01*
X124780000Y-108197715D01*
X124780000Y-107636993D01*
X167751612Y-107636993D01*
X167817137Y-107875860D01*
X168064116Y-107991760D01*
X168328960Y-108057250D01*
X168601492Y-108069812D01*
X168871238Y-108028965D01*
X169127832Y-107936277D01*
X169240863Y-107875860D01*
X169306388Y-107636993D01*
X168529000Y-106859605D01*
X167751612Y-107636993D01*
X124780000Y-107636993D01*
X124780000Y-107442285D01*
X124632623Y-106701372D01*
X124343533Y-106003446D01*
X123923839Y-105375330D01*
X123389670Y-104841161D01*
X122761554Y-104421467D01*
X122063628Y-104132377D01*
X121322715Y-103985000D01*
X120567285Y-103985000D01*
X119826372Y-104132377D01*
X119128446Y-104421467D01*
X118500330Y-104841161D01*
X117966161Y-105375330D01*
X117729000Y-105730266D01*
X117729000Y-102806712D01*
X124067893Y-102806712D01*
X124175726Y-103081338D01*
X124482384Y-103232216D01*
X124812585Y-103320369D01*
X125153639Y-103342409D01*
X125492439Y-103297489D01*
X125815966Y-103187336D01*
X126014274Y-103081338D01*
X126122107Y-102806712D01*
X125095000Y-101779605D01*
X124067893Y-102806712D01*
X117729000Y-102806712D01*
X117729000Y-101658639D01*
X123352591Y-101658639D01*
X123397511Y-101997439D01*
X123507664Y-102320966D01*
X123613662Y-102519274D01*
X123888288Y-102627107D01*
X124915395Y-101600000D01*
X125274605Y-101600000D01*
X126301712Y-102627107D01*
X126576338Y-102519274D01*
X126727216Y-102212616D01*
X126795486Y-101956890D01*
X130003524Y-101956890D01*
X130048175Y-102104099D01*
X130173359Y-102366920D01*
X130347412Y-102600269D01*
X130563645Y-102795178D01*
X130813748Y-102944157D01*
X131088109Y-103041481D01*
X131318000Y-102920814D01*
X131318000Y-101727000D01*
X131572000Y-101727000D01*
X131572000Y-102920814D01*
X131801891Y-103041481D01*
X132076252Y-102944157D01*
X132326355Y-102795178D01*
X132542588Y-102600269D01*
X132716641Y-102366920D01*
X132841825Y-102104099D01*
X132886476Y-101956890D01*
X132765155Y-101727000D01*
X131572000Y-101727000D01*
X131318000Y-101727000D01*
X130124845Y-101727000D01*
X130003524Y-101956890D01*
X126795486Y-101956890D01*
X126815369Y-101882415D01*
X126837409Y-101541361D01*
X126792489Y-101202561D01*
X126682336Y-100879034D01*
X126576338Y-100680726D01*
X126301712Y-100572893D01*
X125274605Y-101600000D01*
X124915395Y-101600000D01*
X123888288Y-100572893D01*
X123613662Y-100680726D01*
X123462784Y-100987384D01*
X123374631Y-101317585D01*
X123352591Y-101658639D01*
X117729000Y-101658639D01*
X117729000Y-77299117D01*
X121455000Y-77299117D01*
X121455000Y-77640883D01*
X121521675Y-77976081D01*
X121652463Y-78291831D01*
X121842337Y-78575998D01*
X122055001Y-78788662D01*
X122055000Y-85954882D01*
X122049509Y-86010634D01*
X122055000Y-86066385D01*
X122071423Y-86233132D01*
X122136324Y-86447080D01*
X122241716Y-86644257D01*
X122383551Y-86817083D01*
X122426865Y-86852630D01*
X122697370Y-87123135D01*
X122732917Y-87166449D01*
X122905743Y-87308284D01*
X123102919Y-87413676D01*
X123275400Y-87465998D01*
X123316866Y-87478577D01*
X123539365Y-87500491D01*
X123595117Y-87495000D01*
X123776339Y-87495000D01*
X123911339Y-87630000D01*
X123747337Y-87794002D01*
X123557463Y-88078169D01*
X123426675Y-88393919D01*
X123360000Y-88729117D01*
X123360000Y-89070883D01*
X123426675Y-89406081D01*
X123557463Y-89721831D01*
X123747337Y-90005998D01*
X123911339Y-90170000D01*
X123747337Y-90334002D01*
X123557463Y-90618169D01*
X123426675Y-90933919D01*
X123360000Y-91269117D01*
X123360000Y-91610883D01*
X123426675Y-91946081D01*
X123557463Y-92261831D01*
X123747337Y-92545998D01*
X123911339Y-92710000D01*
X123747337Y-92874002D01*
X123557463Y-93158169D01*
X123426675Y-93473919D01*
X123360000Y-93809117D01*
X123360000Y-94150883D01*
X123426675Y-94486081D01*
X123557463Y-94801831D01*
X123747337Y-95085998D01*
X123911339Y-95250000D01*
X123747337Y-95414002D01*
X123557463Y-95698169D01*
X123426675Y-96013919D01*
X123360000Y-96349117D01*
X123360000Y-96690883D01*
X123426675Y-97026081D01*
X123557463Y-97341831D01*
X123747337Y-97625998D01*
X123911339Y-97790000D01*
X123747337Y-97954002D01*
X123557463Y-98238169D01*
X123426675Y-98553919D01*
X123360000Y-98889117D01*
X123360000Y-99230883D01*
X123426675Y-99566081D01*
X123557463Y-99881831D01*
X123747337Y-100165998D01*
X123989002Y-100407663D01*
X124270074Y-100595469D01*
X125095000Y-101420395D01*
X125919926Y-100595469D01*
X126200998Y-100407663D01*
X126442663Y-100165998D01*
X126623738Y-99895000D01*
X130216935Y-99895000D01*
X130291525Y-100006632D01*
X130498368Y-100213475D01*
X130680534Y-100335195D01*
X130563645Y-100404822D01*
X130347412Y-100599731D01*
X130173359Y-100833080D01*
X130048175Y-101095901D01*
X130003524Y-101243110D01*
X130124845Y-101473000D01*
X131318000Y-101473000D01*
X131318000Y-101453000D01*
X131572000Y-101453000D01*
X131572000Y-101473000D01*
X132765155Y-101473000D01*
X132886476Y-101243110D01*
X132841825Y-101095901D01*
X132716641Y-100833080D01*
X132542588Y-100599731D01*
X132326355Y-100404822D01*
X132209466Y-100335195D01*
X132391632Y-100213475D01*
X132539620Y-100065487D01*
X136259824Y-103785692D01*
X136220200Y-103984896D01*
X136220200Y-104295104D01*
X136280718Y-104599352D01*
X136399430Y-104885948D01*
X136571773Y-105143877D01*
X136791123Y-105363227D01*
X137049052Y-105535570D01*
X137335648Y-105654282D01*
X137639896Y-105714800D01*
X137950104Y-105714800D01*
X138254352Y-105654282D01*
X138540948Y-105535570D01*
X138798877Y-105363227D01*
X139018227Y-105143877D01*
X139190570Y-104885948D01*
X139309282Y-104599352D01*
X139369800Y-104295104D01*
X139369800Y-103984896D01*
X139309282Y-103680648D01*
X139190570Y-103394052D01*
X139018227Y-103136123D01*
X138798877Y-102916773D01*
X138728876Y-102870000D01*
X138798877Y-102823227D01*
X139018227Y-102603877D01*
X139190570Y-102345948D01*
X139309282Y-102059352D01*
X139369800Y-101755104D01*
X139369800Y-101444896D01*
X139309282Y-101140648D01*
X139190570Y-100854052D01*
X139018227Y-100596123D01*
X138798877Y-100376773D01*
X138728876Y-100330000D01*
X138798877Y-100283227D01*
X139018227Y-100063877D01*
X139190570Y-99805948D01*
X139309282Y-99519352D01*
X139369800Y-99215104D01*
X139369800Y-98904896D01*
X139309282Y-98600648D01*
X139190570Y-98314052D01*
X139018227Y-98056123D01*
X138798877Y-97836773D01*
X138662286Y-97745505D01*
X138707871Y-97612476D01*
X137795000Y-96699605D01*
X136882129Y-97612476D01*
X136927714Y-97745505D01*
X136791123Y-97836773D01*
X136571773Y-98056123D01*
X136399430Y-98314052D01*
X136280718Y-98600648D01*
X136230248Y-98854380D01*
X133960845Y-96584977D01*
X136213916Y-96584977D01*
X136256973Y-96892184D01*
X136359135Y-97185086D01*
X136444277Y-97344377D01*
X136702524Y-97432871D01*
X137615395Y-96520000D01*
X137974605Y-96520000D01*
X138887476Y-97432871D01*
X139145723Y-97344377D01*
X139280597Y-97065024D01*
X139358381Y-96764725D01*
X139376084Y-96455023D01*
X139333027Y-96147816D01*
X139230865Y-95854914D01*
X139145723Y-95695623D01*
X138887476Y-95607129D01*
X137974605Y-96520000D01*
X137615395Y-96520000D01*
X136702524Y-95607129D01*
X136444277Y-95695623D01*
X136309403Y-95974976D01*
X136231619Y-96275275D01*
X136213916Y-96584977D01*
X133960845Y-96584977D01*
X133334446Y-95958579D01*
X133308291Y-95926709D01*
X133181146Y-95822364D01*
X133036087Y-95744828D01*
X132878689Y-95697082D01*
X132756019Y-95685000D01*
X132756018Y-95685000D01*
X132715000Y-95680960D01*
X132673982Y-95685000D01*
X132673065Y-95685000D01*
X132598475Y-95573368D01*
X132391632Y-95366525D01*
X132217240Y-95250000D01*
X132391632Y-95133475D01*
X132598475Y-94926632D01*
X132673065Y-94815000D01*
X136458933Y-94815000D01*
X136571773Y-94983877D01*
X136791123Y-95203227D01*
X136927714Y-95294495D01*
X136882129Y-95427524D01*
X137795000Y-96340395D01*
X138707871Y-95427524D01*
X138662286Y-95294495D01*
X138798877Y-95203227D01*
X139018227Y-94983877D01*
X139190570Y-94725948D01*
X139309282Y-94439352D01*
X139369800Y-94135104D01*
X139369800Y-93824896D01*
X139309282Y-93520648D01*
X139190570Y-93234052D01*
X139018227Y-92976123D01*
X138798877Y-92756773D01*
X138728876Y-92710000D01*
X138798877Y-92663227D01*
X139018227Y-92443877D01*
X139190570Y-92185948D01*
X139309282Y-91899352D01*
X139369800Y-91595104D01*
X139369800Y-91284896D01*
X139309282Y-90980648D01*
X139190570Y-90694052D01*
X139018227Y-90436123D01*
X138798877Y-90216773D01*
X138540948Y-90044430D01*
X138254352Y-89925718D01*
X137950104Y-89865200D01*
X137639896Y-89865200D01*
X137335648Y-89925718D01*
X137049052Y-90044430D01*
X136791123Y-90216773D01*
X136571773Y-90436123D01*
X136458933Y-90605000D01*
X132673065Y-90605000D01*
X132598475Y-90493368D01*
X132391632Y-90286525D01*
X132217240Y-90170000D01*
X132391632Y-90053475D01*
X132598475Y-89846632D01*
X132760990Y-89603411D01*
X132872932Y-89333158D01*
X132930000Y-89046260D01*
X132930000Y-89020131D01*
X133858141Y-88091990D01*
X133901450Y-88056448D01*
X134043285Y-87883622D01*
X134148677Y-87686446D01*
X134213578Y-87472498D01*
X134230001Y-87305751D01*
X134235492Y-87249999D01*
X134230001Y-87194247D01*
X134230001Y-79810753D01*
X134235492Y-79755001D01*
X134217550Y-79572836D01*
X134418158Y-79532932D01*
X134688411Y-79420990D01*
X134931632Y-79258475D01*
X135138475Y-79051632D01*
X135300990Y-78808411D01*
X135360902Y-78663769D01*
X135690000Y-78992867D01*
X135690001Y-84345299D01*
X135650518Y-84349188D01*
X135530820Y-84385498D01*
X135420506Y-84444463D01*
X135323815Y-84523815D01*
X135244463Y-84620506D01*
X135185498Y-84730820D01*
X135149188Y-84850518D01*
X135136928Y-84975000D01*
X135136928Y-86475000D01*
X135149188Y-86599482D01*
X135185498Y-86719180D01*
X135244463Y-86829494D01*
X135323815Y-86926185D01*
X135420506Y-87005537D01*
X135530820Y-87064502D01*
X135650518Y-87100812D01*
X135775000Y-87113072D01*
X137275000Y-87113072D01*
X137399482Y-87100812D01*
X137519180Y-87064502D01*
X137629494Y-87005537D01*
X137726185Y-86926185D01*
X137805537Y-86829494D01*
X137864502Y-86719180D01*
X137900812Y-86599482D01*
X137911445Y-86491517D01*
X137989201Y-86607886D01*
X138182114Y-86800799D01*
X138408957Y-86952371D01*
X138661011Y-87056775D01*
X138928589Y-87110000D01*
X139201411Y-87110000D01*
X139468989Y-87056775D01*
X139721043Y-86952371D01*
X139947886Y-86800799D01*
X140066692Y-86681993D01*
X140827612Y-86681993D01*
X140893137Y-86920860D01*
X141140116Y-87036760D01*
X141404960Y-87102250D01*
X141677492Y-87114812D01*
X141947238Y-87073965D01*
X142203832Y-86981277D01*
X142316863Y-86920860D01*
X142382388Y-86681993D01*
X141605000Y-85904605D01*
X140827612Y-86681993D01*
X140066692Y-86681993D01*
X140140799Y-86607886D01*
X140292371Y-86381043D01*
X140333511Y-86281721D01*
X140348723Y-86323832D01*
X140409140Y-86436863D01*
X140648007Y-86502388D01*
X141425395Y-85725000D01*
X141784605Y-85725000D01*
X142561993Y-86502388D01*
X142800860Y-86436863D01*
X142916760Y-86189884D01*
X142982250Y-85925040D01*
X142994812Y-85652508D01*
X142984388Y-85583665D01*
X143980000Y-85583665D01*
X143980000Y-85866335D01*
X144035147Y-86143574D01*
X144143320Y-86404727D01*
X144300363Y-86639759D01*
X144500241Y-86839637D01*
X144580001Y-86892931D01*
X144580000Y-99018981D01*
X144575960Y-99060000D01*
X144580000Y-99101018D01*
X144592082Y-99223688D01*
X144639828Y-99381086D01*
X144717364Y-99526145D01*
X144821709Y-99653291D01*
X144853579Y-99679446D01*
X146419824Y-101245691D01*
X146380200Y-101444896D01*
X146380200Y-101755104D01*
X146440718Y-102059352D01*
X146559430Y-102345948D01*
X146731773Y-102603877D01*
X146951123Y-102823227D01*
X147021124Y-102870000D01*
X146951123Y-102916773D01*
X146731773Y-103136123D01*
X146559430Y-103394052D01*
X146440718Y-103680648D01*
X146380200Y-103984896D01*
X146380200Y-104295104D01*
X146440718Y-104599352D01*
X146559430Y-104885948D01*
X146731773Y-105143877D01*
X146951123Y-105363227D01*
X147209052Y-105535570D01*
X147495648Y-105654282D01*
X147799896Y-105714800D01*
X148110104Y-105714800D01*
X148414352Y-105654282D01*
X148700948Y-105535570D01*
X148958877Y-105363227D01*
X149178227Y-105143877D01*
X149291067Y-104975000D01*
X151419133Y-104975000D01*
X151618715Y-105174582D01*
X151600000Y-105268665D01*
X151600000Y-105551335D01*
X151655147Y-105828574D01*
X151763320Y-106089727D01*
X151920363Y-106324759D01*
X152120241Y-106524637D01*
X152355273Y-106681680D01*
X152616426Y-106789853D01*
X152893665Y-106845000D01*
X153176335Y-106845000D01*
X153453574Y-106789853D01*
X153714727Y-106681680D01*
X153949759Y-106524637D01*
X154149637Y-106324759D01*
X154306680Y-106089727D01*
X154414853Y-105828574D01*
X154470000Y-105551335D01*
X154470000Y-105268665D01*
X154414853Y-104991426D01*
X154306680Y-104730273D01*
X154149637Y-104495241D01*
X153949759Y-104295363D01*
X153714727Y-104138320D01*
X153453574Y-104030147D01*
X153176335Y-103975000D01*
X152893665Y-103975000D01*
X152799582Y-103993715D01*
X152384446Y-103578579D01*
X152358291Y-103546709D01*
X152231146Y-103442364D01*
X152086087Y-103364828D01*
X151928689Y-103317082D01*
X151806019Y-103305000D01*
X151806018Y-103305000D01*
X151765000Y-103300960D01*
X151723982Y-103305000D01*
X149291067Y-103305000D01*
X149178227Y-103136123D01*
X148958877Y-102916773D01*
X148888876Y-102870000D01*
X148958877Y-102823227D01*
X149178227Y-102603877D01*
X149350570Y-102345948D01*
X149469282Y-102059352D01*
X149529800Y-101755104D01*
X149529800Y-101444896D01*
X149469282Y-101140648D01*
X149350570Y-100854052D01*
X149178227Y-100596123D01*
X148958877Y-100376773D01*
X148888876Y-100330000D01*
X148958877Y-100283227D01*
X149178227Y-100063877D01*
X149350570Y-99805948D01*
X149469282Y-99519352D01*
X149529800Y-99215104D01*
X149529800Y-98904896D01*
X149469282Y-98600648D01*
X149350570Y-98314052D01*
X149178227Y-98056123D01*
X148958877Y-97836773D01*
X148822286Y-97745505D01*
X148867871Y-97612476D01*
X147955000Y-96699605D01*
X147042129Y-97612476D01*
X147087714Y-97745505D01*
X146951123Y-97836773D01*
X146731773Y-98056123D01*
X146559430Y-98314052D01*
X146440718Y-98600648D01*
X146390248Y-98854381D01*
X146250000Y-98714133D01*
X146250000Y-96584977D01*
X146373916Y-96584977D01*
X146416973Y-96892184D01*
X146519135Y-97185086D01*
X146604277Y-97344377D01*
X146862524Y-97432871D01*
X147775395Y-96520000D01*
X148134605Y-96520000D01*
X149047476Y-97432871D01*
X149305723Y-97344377D01*
X149440597Y-97065024D01*
X149518381Y-96764725D01*
X149536084Y-96455023D01*
X149493027Y-96147816D01*
X149390865Y-95854914D01*
X149305723Y-95695623D01*
X149047476Y-95607129D01*
X148134605Y-96520000D01*
X147775395Y-96520000D01*
X146862524Y-95607129D01*
X146604277Y-95695623D01*
X146469403Y-95974976D01*
X146391619Y-96275275D01*
X146373916Y-96584977D01*
X146250000Y-96584977D01*
X146250000Y-86892930D01*
X146329759Y-86839637D01*
X146529637Y-86639759D01*
X146686680Y-86404727D01*
X146794853Y-86143574D01*
X146850000Y-85866335D01*
X146850000Y-85583665D01*
X146794853Y-85306426D01*
X146686680Y-85045273D01*
X146529637Y-84810241D01*
X146329759Y-84610363D01*
X146094727Y-84453320D01*
X145833574Y-84345147D01*
X145556335Y-84290000D01*
X145273665Y-84290000D01*
X144996426Y-84345147D01*
X144735273Y-84453320D01*
X144500241Y-84610363D01*
X144300363Y-84810241D01*
X144143320Y-85045273D01*
X144035147Y-85306426D01*
X143980000Y-85583665D01*
X142984388Y-85583665D01*
X142953965Y-85382762D01*
X142861277Y-85126168D01*
X142800860Y-85013137D01*
X142561993Y-84947612D01*
X141784605Y-85725000D01*
X141425395Y-85725000D01*
X141411253Y-85710858D01*
X141590858Y-85531253D01*
X141605000Y-85545395D01*
X142382388Y-84768007D01*
X142316863Y-84529140D01*
X142069884Y-84413240D01*
X141805040Y-84347750D01*
X141631134Y-84339734D01*
X144355736Y-81615132D01*
X144500241Y-81759637D01*
X144735273Y-81916680D01*
X144996426Y-82024853D01*
X145273665Y-82080000D01*
X145556335Y-82080000D01*
X145833574Y-82024853D01*
X146094727Y-81916680D01*
X146329759Y-81759637D01*
X146529637Y-81559759D01*
X146686680Y-81324727D01*
X146794853Y-81063574D01*
X146850000Y-80786335D01*
X146850000Y-80503665D01*
X146794853Y-80226426D01*
X146686680Y-79965273D01*
X146529637Y-79730241D01*
X146329759Y-79530363D01*
X146094727Y-79373320D01*
X145833574Y-79265147D01*
X145556335Y-79210000D01*
X145273665Y-79210000D01*
X144996426Y-79265147D01*
X144735273Y-79373320D01*
X144500241Y-79530363D01*
X144300363Y-79730241D01*
X144247070Y-79810000D01*
X144186018Y-79810000D01*
X144145000Y-79805960D01*
X143981311Y-79822082D01*
X143823913Y-79869828D01*
X143678854Y-79947364D01*
X143653356Y-79968290D01*
X143551709Y-80051709D01*
X143525563Y-80083568D01*
X139257897Y-84351236D01*
X139201411Y-84340000D01*
X138928589Y-84340000D01*
X138661011Y-84393225D01*
X138408957Y-84497629D01*
X138182114Y-84649201D01*
X137989201Y-84842114D01*
X137911445Y-84958483D01*
X137900812Y-84850518D01*
X137864502Y-84730820D01*
X137805537Y-84620506D01*
X137726185Y-84523815D01*
X137629494Y-84444463D01*
X137519180Y-84385498D01*
X137399482Y-84349188D01*
X137360000Y-84345299D01*
X137360000Y-78688016D01*
X137364040Y-78646998D01*
X137347918Y-78483310D01*
X137330560Y-78426086D01*
X137300172Y-78325911D01*
X137222636Y-78180852D01*
X137163601Y-78108917D01*
X137144439Y-78085568D01*
X137144437Y-78085566D01*
X137118291Y-78053707D01*
X137086433Y-78027562D01*
X135252447Y-76193578D01*
X135226292Y-76161708D01*
X135099147Y-76057363D01*
X134954088Y-75979827D01*
X134796690Y-75932081D01*
X134674020Y-75919999D01*
X134674019Y-75919999D01*
X134633001Y-75915959D01*
X134591983Y-75919999D01*
X130296019Y-75919999D01*
X130255001Y-75915959D01*
X130213983Y-75919999D01*
X130213982Y-75919999D01*
X130091312Y-75932081D01*
X129933914Y-75979827D01*
X129788855Y-76057363D01*
X129704698Y-76126429D01*
X129661710Y-76161708D01*
X129635564Y-76193567D01*
X129212204Y-76616928D01*
X128055000Y-76616928D01*
X127930518Y-76629188D01*
X127810820Y-76665498D01*
X127700506Y-76724463D01*
X127603815Y-76803815D01*
X127524463Y-76900506D01*
X127465498Y-77010820D01*
X127429188Y-77130518D01*
X127416928Y-77255000D01*
X127416928Y-78955000D01*
X127429188Y-79079482D01*
X127465498Y-79199180D01*
X127524463Y-79309494D01*
X127603815Y-79406185D01*
X127700506Y-79485537D01*
X127810820Y-79544502D01*
X127930518Y-79580812D01*
X128055000Y-79593072D01*
X129755000Y-79593072D01*
X129879482Y-79580812D01*
X129999180Y-79544502D01*
X130109494Y-79485537D01*
X130206185Y-79406185D01*
X130285537Y-79309494D01*
X130344502Y-79199180D01*
X130366513Y-79126620D01*
X130498368Y-79258475D01*
X130741589Y-79420990D01*
X131011842Y-79532932D01*
X131298740Y-79590000D01*
X131324869Y-79590000D01*
X131960001Y-80225133D01*
X131960001Y-82333752D01*
X131730750Y-82335000D01*
X131572000Y-82493750D01*
X131572000Y-83693000D01*
X131592000Y-83693000D01*
X131592000Y-83947000D01*
X131572000Y-83947000D01*
X131572000Y-83967000D01*
X131318000Y-83967000D01*
X131318000Y-83947000D01*
X130118750Y-83947000D01*
X129960000Y-84105750D01*
X129956928Y-84670000D01*
X129969188Y-84794482D01*
X130005498Y-84914180D01*
X130064463Y-85024494D01*
X130143815Y-85121185D01*
X130240506Y-85200537D01*
X130286272Y-85225000D01*
X126751993Y-85225000D01*
X126784502Y-85164180D01*
X126820812Y-85044482D01*
X126833072Y-84920000D01*
X126830000Y-84105750D01*
X126671250Y-83947000D01*
X125222000Y-83947000D01*
X125222000Y-83967000D01*
X124968000Y-83967000D01*
X124968000Y-83947000D01*
X124948000Y-83947000D01*
X124948000Y-83693000D01*
X124968000Y-83693000D01*
X124968000Y-82243750D01*
X125222000Y-82243750D01*
X125222000Y-83693000D01*
X126671250Y-83693000D01*
X126830000Y-83534250D01*
X126832128Y-82970000D01*
X129956928Y-82970000D01*
X129960000Y-83534250D01*
X130118750Y-83693000D01*
X131318000Y-83693000D01*
X131318000Y-82493750D01*
X131159250Y-82335000D01*
X130595000Y-82331928D01*
X130470518Y-82344188D01*
X130350820Y-82380498D01*
X130240506Y-82439463D01*
X130143815Y-82518815D01*
X130064463Y-82615506D01*
X130005498Y-82725820D01*
X129969188Y-82845518D01*
X129956928Y-82970000D01*
X126832128Y-82970000D01*
X126833072Y-82720000D01*
X126820812Y-82595518D01*
X126784502Y-82475820D01*
X126725537Y-82365506D01*
X126646185Y-82268815D01*
X126549494Y-82189463D01*
X126439180Y-82130498D01*
X126319482Y-82094188D01*
X126195000Y-82081928D01*
X125380750Y-82085000D01*
X125222000Y-82243750D01*
X124968000Y-82243750D01*
X124809250Y-82085000D01*
X124325000Y-82083173D01*
X124325000Y-78788661D01*
X124537663Y-78575998D01*
X124727537Y-78291831D01*
X124858325Y-77976081D01*
X124925000Y-77640883D01*
X124925000Y-77299117D01*
X124858325Y-76963919D01*
X124727537Y-76648169D01*
X124537663Y-76364002D01*
X124295998Y-76122337D01*
X124011831Y-75932463D01*
X123696081Y-75801675D01*
X123360883Y-75735000D01*
X123019117Y-75735000D01*
X122683919Y-75801675D01*
X122368169Y-75932463D01*
X122084002Y-76122337D01*
X121842337Y-76364002D01*
X121652463Y-76648169D01*
X121521675Y-76963919D01*
X121455000Y-77299117D01*
X117729000Y-77299117D01*
X117729000Y-72437702D01*
X130631903Y-72437702D01*
X130703486Y-72681671D01*
X130958996Y-72802571D01*
X131233184Y-72871300D01*
X131515512Y-72885217D01*
X131795130Y-72843787D01*
X132061292Y-72748603D01*
X132186514Y-72681671D01*
X132258097Y-72437702D01*
X131445000Y-71624605D01*
X130631903Y-72437702D01*
X117729000Y-72437702D01*
X117729000Y-71515512D01*
X130004783Y-71515512D01*
X130046213Y-71795130D01*
X130141397Y-72061292D01*
X130208329Y-72186514D01*
X130452298Y-72258097D01*
X131265395Y-71445000D01*
X131624605Y-71445000D01*
X132437702Y-72258097D01*
X132681671Y-72186514D01*
X132802571Y-71931004D01*
X132871300Y-71656816D01*
X132885217Y-71374488D01*
X132843787Y-71094870D01*
X132748603Y-70828708D01*
X132681671Y-70703486D01*
X132437702Y-70631903D01*
X131624605Y-71445000D01*
X131265395Y-71445000D01*
X130452298Y-70631903D01*
X130208329Y-70703486D01*
X130087429Y-70958996D01*
X130018700Y-71233184D01*
X130004783Y-71515512D01*
X117729000Y-71515512D01*
X117729000Y-70452298D01*
X130631903Y-70452298D01*
X131445000Y-71265395D01*
X132258097Y-70452298D01*
X132186514Y-70208329D01*
X131931004Y-70087429D01*
X131656816Y-70018700D01*
X131374488Y-70004783D01*
X131094870Y-70046213D01*
X130828708Y-70141397D01*
X130703486Y-70208329D01*
X130631903Y-70452298D01*
X117729000Y-70452298D01*
X117729000Y-66210000D01*
X121451928Y-66210000D01*
X121451928Y-68410000D01*
X121464188Y-68534482D01*
X121500498Y-68654180D01*
X121559463Y-68764494D01*
X121638815Y-68861185D01*
X121735506Y-68940537D01*
X121845820Y-68999502D01*
X121965518Y-69035812D01*
X122090000Y-69048072D01*
X124290000Y-69048072D01*
X124414482Y-69035812D01*
X124534180Y-68999502D01*
X124644494Y-68940537D01*
X124741185Y-68861185D01*
X124820537Y-68764494D01*
X124879502Y-68654180D01*
X124915812Y-68534482D01*
X124928072Y-68410000D01*
X124928072Y-66210000D01*
X124915812Y-66085518D01*
X124879502Y-65965820D01*
X124820537Y-65855506D01*
X124741185Y-65758815D01*
X124644494Y-65679463D01*
X124534180Y-65620498D01*
X124419439Y-65585692D01*
X127416928Y-62588205D01*
X127416928Y-63715000D01*
X127429188Y-63839482D01*
X127465498Y-63959180D01*
X127524463Y-64069494D01*
X127603815Y-64166185D01*
X127700506Y-64245537D01*
X127810820Y-64304502D01*
X127930518Y-64340812D01*
X128055000Y-64353072D01*
X129755000Y-64353072D01*
X129879482Y-64340812D01*
X129999180Y-64304502D01*
X130109494Y-64245537D01*
X130206185Y-64166185D01*
X130285537Y-64069494D01*
X130310001Y-64023726D01*
X130310000Y-66604043D01*
X130290506Y-66614463D01*
X130193815Y-66693815D01*
X130114463Y-66790506D01*
X130055498Y-66900820D01*
X130019188Y-67020518D01*
X130006928Y-67145000D01*
X130006928Y-68745000D01*
X130019188Y-68869482D01*
X130055498Y-68989180D01*
X130114463Y-69099494D01*
X130193815Y-69196185D01*
X130290506Y-69275537D01*
X130400820Y-69334502D01*
X130520518Y-69370812D01*
X130645000Y-69383072D01*
X132245000Y-69383072D01*
X132369482Y-69370812D01*
X132489180Y-69334502D01*
X132599494Y-69275537D01*
X132696185Y-69196185D01*
X132775537Y-69099494D01*
X132789343Y-69073665D01*
X139535000Y-69073665D01*
X139535000Y-69356335D01*
X139590147Y-69633574D01*
X139698320Y-69894727D01*
X139855363Y-70129759D01*
X140055241Y-70329637D01*
X140290273Y-70486680D01*
X140551426Y-70594853D01*
X140828665Y-70650000D01*
X141111335Y-70650000D01*
X141205418Y-70631286D01*
X141620558Y-71046426D01*
X141646709Y-71078291D01*
X141773854Y-71182636D01*
X141918913Y-71260172D01*
X142076311Y-71307918D01*
X142198981Y-71320000D01*
X142198983Y-71320000D01*
X142239999Y-71324040D01*
X142281015Y-71320000D01*
X144247070Y-71320000D01*
X144300363Y-71399759D01*
X144500241Y-71599637D01*
X144735273Y-71756680D01*
X144996426Y-71864853D01*
X145273665Y-71920000D01*
X145556335Y-71920000D01*
X145833574Y-71864853D01*
X146094727Y-71756680D01*
X146329759Y-71599637D01*
X146529637Y-71399759D01*
X146582930Y-71320000D01*
X147913982Y-71320000D01*
X147955000Y-71324040D01*
X147996018Y-71320000D01*
X147996019Y-71320000D01*
X148118689Y-71307918D01*
X148276087Y-71260172D01*
X148421146Y-71182636D01*
X148548291Y-71078291D01*
X148574446Y-71046421D01*
X149277202Y-70343665D01*
X154140000Y-70343665D01*
X154140000Y-70626335D01*
X154195147Y-70903574D01*
X154303320Y-71164727D01*
X154460363Y-71399759D01*
X154660241Y-71599637D01*
X154895273Y-71756680D01*
X155156426Y-71864853D01*
X155433665Y-71920000D01*
X155716335Y-71920000D01*
X155993574Y-71864853D01*
X156254727Y-71756680D01*
X156489759Y-71599637D01*
X156689637Y-71399759D01*
X156846680Y-71164727D01*
X156954853Y-70903574D01*
X157010000Y-70626335D01*
X157010000Y-70343665D01*
X156954853Y-70066426D01*
X156846680Y-69805273D01*
X156689637Y-69570241D01*
X156489759Y-69370363D01*
X156254727Y-69213320D01*
X155993574Y-69105147D01*
X155716335Y-69050000D01*
X155433665Y-69050000D01*
X155156426Y-69105147D01*
X154895273Y-69213320D01*
X154660241Y-69370363D01*
X154460363Y-69570241D01*
X154303320Y-69805273D01*
X154195147Y-70066426D01*
X154140000Y-70343665D01*
X149277202Y-70343665D01*
X155297061Y-64323807D01*
X155428740Y-64350000D01*
X155721260Y-64350000D01*
X156008158Y-64292932D01*
X156278411Y-64180990D01*
X156521632Y-64018475D01*
X156728475Y-63811632D01*
X156890990Y-63568411D01*
X157002932Y-63298158D01*
X157060000Y-63011260D01*
X157060000Y-62718740D01*
X157002932Y-62431842D01*
X156890990Y-62161589D01*
X156728475Y-61918368D01*
X156521632Y-61711525D01*
X156278411Y-61549010D01*
X156008158Y-61437068D01*
X155721260Y-61380000D01*
X155428740Y-61380000D01*
X155141842Y-61437068D01*
X154871589Y-61549010D01*
X154628368Y-61711525D01*
X154496513Y-61843380D01*
X154474502Y-61770820D01*
X154415537Y-61660506D01*
X154336185Y-61563815D01*
X154239494Y-61484463D01*
X154129180Y-61425498D01*
X154009482Y-61389188D01*
X153885000Y-61376928D01*
X153320750Y-61380000D01*
X153162000Y-61538750D01*
X153162000Y-62738000D01*
X153182000Y-62738000D01*
X153182000Y-62992000D01*
X153162000Y-62992000D01*
X153162000Y-63012000D01*
X152908000Y-63012000D01*
X152908000Y-62992000D01*
X151708750Y-62992000D01*
X151550000Y-63150750D01*
X151546928Y-63715000D01*
X151559188Y-63839482D01*
X151595498Y-63959180D01*
X151654463Y-64069494D01*
X151733815Y-64166185D01*
X151830506Y-64245537D01*
X151940820Y-64304502D01*
X152060518Y-64340812D01*
X152185000Y-64353072D01*
X152749250Y-64350000D01*
X152907998Y-64191252D01*
X152907998Y-64350000D01*
X152909132Y-64350000D01*
X147609133Y-69650000D01*
X146582930Y-69650000D01*
X146529637Y-69570241D01*
X146329759Y-69370363D01*
X146094727Y-69213320D01*
X145833574Y-69105147D01*
X145556335Y-69050000D01*
X145273665Y-69050000D01*
X144996426Y-69105147D01*
X144735273Y-69213320D01*
X144500241Y-69370363D01*
X144300363Y-69570241D01*
X144247070Y-69650000D01*
X142585868Y-69650000D01*
X142386286Y-69450418D01*
X142405000Y-69356335D01*
X142405000Y-69073665D01*
X142349853Y-68796426D01*
X142241680Y-68535273D01*
X142084637Y-68300241D01*
X141884759Y-68100363D01*
X141649727Y-67943320D01*
X141388574Y-67835147D01*
X141111335Y-67780000D01*
X140828665Y-67780000D01*
X140551426Y-67835147D01*
X140290273Y-67943320D01*
X140055241Y-68100363D01*
X139855363Y-68300241D01*
X139698320Y-68535273D01*
X139590147Y-68796426D01*
X139535000Y-69073665D01*
X132789343Y-69073665D01*
X132834502Y-68989180D01*
X132870812Y-68869482D01*
X132883072Y-68745000D01*
X132883072Y-67145000D01*
X132870812Y-67020518D01*
X132834502Y-66900820D01*
X132775537Y-66790506D01*
X132696185Y-66693815D01*
X132599494Y-66614463D01*
X132580000Y-66604043D01*
X132580000Y-63830107D01*
X132598475Y-63811632D01*
X132720195Y-63629466D01*
X132789822Y-63746355D01*
X132984731Y-63962588D01*
X133218080Y-64136641D01*
X133480901Y-64261825D01*
X133628110Y-64306476D01*
X133858000Y-64185155D01*
X133858000Y-62992000D01*
X133838000Y-62992000D01*
X133838000Y-62738000D01*
X133858000Y-62738000D01*
X133858000Y-62718000D01*
X134112000Y-62718000D01*
X134112000Y-62738000D01*
X134132000Y-62738000D01*
X134132000Y-62992000D01*
X134112000Y-62992000D01*
X134112000Y-64185155D01*
X134341890Y-64306476D01*
X134489099Y-64261825D01*
X134751920Y-64136641D01*
X134985269Y-63962588D01*
X135180178Y-63746355D01*
X135249805Y-63629466D01*
X135371525Y-63811632D01*
X135578368Y-64018475D01*
X135821589Y-64180990D01*
X136091842Y-64292932D01*
X136378740Y-64350000D01*
X136671260Y-64350000D01*
X136958158Y-64292932D01*
X137228411Y-64180990D01*
X137471632Y-64018475D01*
X137678475Y-63811632D01*
X137840990Y-63568411D01*
X137952932Y-63298158D01*
X138010000Y-63011260D01*
X138010000Y-62718740D01*
X137952932Y-62431842D01*
X137919032Y-62349999D01*
X140119868Y-62349999D01*
X140755000Y-62985132D01*
X140755000Y-63011260D01*
X140812068Y-63298158D01*
X140924010Y-63568411D01*
X141086525Y-63811632D01*
X141293368Y-64018475D01*
X141536589Y-64180990D01*
X141806842Y-64292932D01*
X142093740Y-64350000D01*
X142386260Y-64350000D01*
X142673158Y-64292932D01*
X142943411Y-64180990D01*
X143186632Y-64018475D01*
X143393475Y-63811632D01*
X143510000Y-63637240D01*
X143626525Y-63811632D01*
X143833368Y-64018475D01*
X144076589Y-64180990D01*
X144346842Y-64292932D01*
X144633740Y-64350000D01*
X144926260Y-64350000D01*
X145213158Y-64292932D01*
X145483411Y-64180990D01*
X145726632Y-64018475D01*
X145858487Y-63886620D01*
X145880498Y-63959180D01*
X145939463Y-64069494D01*
X146018815Y-64166185D01*
X146115506Y-64245537D01*
X146225820Y-64304502D01*
X146345518Y-64340812D01*
X146470000Y-64353072D01*
X148170000Y-64353072D01*
X148294482Y-64340812D01*
X148414180Y-64304502D01*
X148524494Y-64245537D01*
X148621185Y-64166185D01*
X148700537Y-64069494D01*
X148759502Y-63959180D01*
X148795812Y-63839482D01*
X148808072Y-63715000D01*
X148808072Y-62015000D01*
X151546928Y-62015000D01*
X151550000Y-62579250D01*
X151708750Y-62738000D01*
X152908000Y-62738000D01*
X152908000Y-61538750D01*
X152749250Y-61380000D01*
X152185000Y-61376928D01*
X152060518Y-61389188D01*
X151940820Y-61425498D01*
X151830506Y-61484463D01*
X151733815Y-61563815D01*
X151654463Y-61660506D01*
X151595498Y-61770820D01*
X151559188Y-61890518D01*
X151546928Y-62015000D01*
X148808072Y-62015000D01*
X148795812Y-61890518D01*
X148759502Y-61770820D01*
X148700537Y-61660506D01*
X148621185Y-61563815D01*
X148524494Y-61484463D01*
X148414180Y-61425498D01*
X148294482Y-61389188D01*
X148170000Y-61376928D01*
X146470000Y-61376928D01*
X146345518Y-61389188D01*
X146225820Y-61425498D01*
X146115506Y-61484463D01*
X146018815Y-61563815D01*
X145939463Y-61660506D01*
X145880498Y-61770820D01*
X145858487Y-61843380D01*
X145726632Y-61711525D01*
X145483411Y-61549010D01*
X145213158Y-61437068D01*
X144926260Y-61380000D01*
X144633740Y-61380000D01*
X144346842Y-61437068D01*
X144076589Y-61549010D01*
X143833368Y-61711525D01*
X143626525Y-61918368D01*
X143510000Y-62092760D01*
X143393475Y-61918368D01*
X143186632Y-61711525D01*
X142943411Y-61549010D01*
X142673158Y-61437068D01*
X142386260Y-61380000D01*
X142360132Y-61380000D01*
X141431995Y-60451864D01*
X141396448Y-60408550D01*
X141223622Y-60266715D01*
X141026446Y-60161323D01*
X140812498Y-60096422D01*
X140645751Y-60079999D01*
X140645750Y-60079999D01*
X140589999Y-60074508D01*
X140534248Y-60079999D01*
X127240753Y-60079999D01*
X127185001Y-60074508D01*
X126962502Y-60096422D01*
X126748554Y-60161323D01*
X126551378Y-60266715D01*
X126421857Y-60373010D01*
X126421856Y-60373011D01*
X126378552Y-60408550D01*
X126343014Y-60451853D01*
X122426860Y-64368009D01*
X122383552Y-64403551D01*
X122241717Y-64576377D01*
X122225717Y-64606311D01*
X122136324Y-64773554D01*
X122071423Y-64987502D01*
X122049509Y-65210000D01*
X122055001Y-65265761D01*
X122055001Y-65575375D01*
X121965518Y-65584188D01*
X121845820Y-65620498D01*
X121735506Y-65679463D01*
X121638815Y-65758815D01*
X121559463Y-65855506D01*
X121500498Y-65965820D01*
X121464188Y-66085518D01*
X121451928Y-66210000D01*
X117729000Y-66210000D01*
X117729000Y-60409734D01*
X117966161Y-60764670D01*
X118500330Y-61298839D01*
X119128446Y-61718533D01*
X119826372Y-62007623D01*
X120567285Y-62155000D01*
X121322715Y-62155000D01*
X122063628Y-62007623D01*
X122761554Y-61718533D01*
X123389670Y-61298839D01*
X123923839Y-60764670D01*
X124343533Y-60136554D01*
X124632623Y-59438628D01*
X124780000Y-58697715D01*
X124780000Y-57942285D01*
X124632623Y-57201372D01*
X124343533Y-56503446D01*
X123923839Y-55875330D01*
X123389670Y-55341161D01*
X123245755Y-55245000D01*
X188644245Y-55245000D01*
X188500330Y-55341161D01*
G37*
G04 #@! TD.AperFunction*
D28*
X170307000Y-87503000D02*
X170327000Y-87503000D01*
X170327000Y-87757000D01*
X170307000Y-87757000D01*
X170307000Y-87777000D01*
X170053000Y-87777000D01*
X170053000Y-87757000D01*
X170033000Y-87757000D01*
X170033000Y-87503000D01*
X170053000Y-87503000D01*
X170053000Y-87483000D01*
X170307000Y-87483000D01*
X170307000Y-87503000D01*
G04 #@! TA.AperFunction,Conductor*
D29*
G36*
X170307000Y-87503000D02*
G01*
X170327000Y-87503000D01*
X170327000Y-87757000D01*
X170307000Y-87757000D01*
X170307000Y-87777000D01*
X170053000Y-87777000D01*
X170053000Y-87757000D01*
X170033000Y-87757000D01*
X170033000Y-87503000D01*
X170053000Y-87503000D01*
X170053000Y-87483000D01*
X170307000Y-87483000D01*
X170307000Y-87503000D01*
G37*
G04 #@! TD.AperFunction*
M02*
