M48
; DRILL file {KiCad (5.1.9)-1} date 05/19/21 15:49:03
; FORMAT={-:-/ absolute / metric / decimal}
; #@! TF.CreationDate,2021-05-19T15:49:03+10:00
; #@! TF.GenerationSoftware,Kicad,Pcbnew,(5.1.9)-1
; #@! TF.FileFunction,Plated,1,2,PTH
FMAT,2
METRIC
T1C0.800
T2C0.900
T3C1.000
T4C1.016
T5C1.100
T6C3.200
%
G90
G05
T1
X131.445Y-67.945
X131.445Y-71.445
X136.525Y-85.725
X139.065Y-85.725
X140.97Y-69.215
X140.97Y-79.375
X141.605Y-85.725
X145.415Y-70.485
X145.415Y-75.565
X145.415Y-80.645
X145.415Y-85.725
X153.035Y-95.25
X153.035Y-105.41
X155.575Y-70.485
X155.575Y-75.565
X155.575Y-80.645
X155.575Y-85.725
X158.115Y-95.25
X158.115Y-105.41
X163.195Y-95.25
X163.195Y-105.41
X168.529Y-93.345
X168.529Y-95.885
X168.529Y-98.425
X168.529Y-101.6
X168.529Y-104.14
X168.529Y-106.68
X180.975Y-95.25
X180.975Y-105.41
X186.055Y-95.25
X186.055Y-105.41
T2
X175.26Y-94.615
X175.26Y-97.155
X175.26Y-102.87
X175.26Y-105.41
T3
X128.905Y-62.865
X128.905Y-78.105
X131.445Y-62.865
X131.445Y-78.105
X131.445Y-83.82
X131.445Y-86.36
X131.445Y-88.9
X131.445Y-91.44
X131.445Y-93.98
X131.445Y-96.52
X131.445Y-99.06
X131.445Y-101.6
X133.985Y-62.865
X133.985Y-78.105
X136.525Y-62.865
X142.24Y-62.865
X144.78Y-62.865
X147.32Y-62.865
X153.035Y-62.865
X155.575Y-62.865
X167.64Y-64.77
X167.64Y-87.63
X170.18Y-64.77
X170.18Y-87.63
X172.72Y-64.77
X172.72Y-87.63
X175.26Y-64.77
X175.26Y-87.63
X177.8Y-64.77
X177.8Y-87.63
X180.34Y-64.77
X180.34Y-87.63
X182.88Y-64.77
X182.88Y-87.63
X185.42Y-64.77
X185.42Y-87.63
X191.135Y-95.25
X191.135Y-97.79
T4
X137.795Y-91.44
X137.795Y-93.98
X137.795Y-96.52
X137.795Y-99.06
X137.795Y-101.6
X137.795Y-104.14
X147.955Y-91.44
X147.955Y-93.98
X147.955Y-96.52
X147.955Y-99.06
X147.955Y-101.6
X147.955Y-104.14
T5
X123.19Y-67.31
X123.19Y-77.47
X125.095Y-83.82
X125.095Y-86.36
X125.095Y-88.9
X125.095Y-91.44
X125.095Y-93.98
X125.095Y-96.52
X125.095Y-99.06
X125.095Y-101.6
T6
X120.945Y-58.32
X120.945Y-107.82
X190.945Y-58.32
X190.945Y-107.82
T0
M30
