G04 #@! TF.GenerationSoftware,KiCad,Pcbnew,(5.1.9)-1*
G04 #@! TF.CreationDate,2021-05-19T15:47:31+10:00*
G04 #@! TF.ProjectId,publisher,7075626c-6973-4686-9572-2e6b69636164,rev?*
G04 #@! TF.SameCoordinates,Original*
G04 #@! TF.FileFunction,Soldermask,Bot*
G04 #@! TF.FilePolarity,Negative*
%FSLAX46Y46*%
G04 Gerber Fmt 4.6, Leading zero omitted, Abs format (unit mm)*
G04 Created by KiCad (PCBNEW (5.1.9)-1) date 2021-05-19 15:47:31*
%MOMM*%
%LPD*%
G01*
G04 APERTURE LIST*
%ADD10O,1.700000X1.700000*%
%ADD11R,1.700000X1.700000*%
%ADD12O,1.600000X1.600000*%
%ADD13C,1.600000*%
%ADD14O,1.600000X2.000000*%
%ADD15R,2.000000X2.000000*%
%ADD16C,2.200000*%
%ADD17R,2.200000X2.200000*%
%ADD18C,6.400000*%
%ADD19R,1.600000X1.600000*%
%ADD20R,1.500000X1.500000*%
%ADD21C,1.500000*%
%ADD22C,1.800000*%
%ADD23R,1.800000X1.800000*%
%ADD24O,2.200000X2.200000*%
%ADD25C,2.082800*%
G04 APERTURE END LIST*
D10*
X133985000Y-78105000D03*
X131445000Y-78105000D03*
D11*
X128905000Y-78105000D03*
D12*
X153035000Y-95250000D03*
D13*
X153035000Y-105410000D03*
D14*
X182880000Y-64770000D03*
D15*
X185420000Y-64770000D03*
D14*
X180340000Y-64770000D03*
X177800000Y-64770000D03*
X175260000Y-64770000D03*
X172720000Y-64770000D03*
X170180000Y-64770000D03*
X167640000Y-64770000D03*
X167640000Y-87630000D03*
X170180000Y-87630000D03*
X172720000Y-87630000D03*
X175260000Y-87630000D03*
X177800000Y-87630000D03*
X180340000Y-87630000D03*
X182880000Y-87630000D03*
X185420000Y-87630000D03*
D12*
X155575000Y-75565000D03*
D13*
X145415000Y-75565000D03*
D12*
X155575000Y-85725000D03*
D13*
X145415000Y-85725000D03*
D10*
X131445000Y-101600000D03*
X131445000Y-99060000D03*
X131445000Y-96520000D03*
X131445000Y-93980000D03*
X131445000Y-91440000D03*
X131445000Y-88900000D03*
X131445000Y-86360000D03*
D11*
X131445000Y-83820000D03*
D10*
X155575000Y-62865000D03*
D11*
X153035000Y-62865000D03*
D10*
X191135000Y-95250000D03*
D11*
X191135000Y-97790000D03*
D16*
X125095000Y-101600000D03*
X125095000Y-99060000D03*
X125095000Y-96520000D03*
X125095000Y-93980000D03*
X125095000Y-91440000D03*
X125095000Y-88900000D03*
X125095000Y-86360000D03*
D17*
X125095000Y-83820000D03*
D18*
X190945000Y-58320000D03*
X120945000Y-107820000D03*
X120945000Y-58320000D03*
X190945000Y-107820000D03*
D12*
X140970000Y-79375000D03*
D13*
X140970000Y-69215000D03*
D19*
X131445000Y-67945000D03*
D13*
X131445000Y-71445000D03*
D20*
X168529000Y-93345000D03*
D21*
X168529000Y-98425000D03*
X168529000Y-95885000D03*
D20*
X136525000Y-85725000D03*
D21*
X141605000Y-85725000D03*
X139065000Y-85725000D03*
D20*
X168529000Y-101600000D03*
D21*
X168529000Y-106680000D03*
X168529000Y-104140000D03*
D12*
X180975000Y-95250000D03*
D13*
X180975000Y-105410000D03*
D12*
X158115000Y-95250000D03*
D13*
X158115000Y-105410000D03*
D10*
X142240000Y-62865000D03*
X144780000Y-62865000D03*
D11*
X147320000Y-62865000D03*
D12*
X155575000Y-70485000D03*
D13*
X145415000Y-70485000D03*
D12*
X186055000Y-95250000D03*
D13*
X186055000Y-105410000D03*
D12*
X163195000Y-105410000D03*
D13*
X163195000Y-95250000D03*
D22*
X175260000Y-105410000D03*
D23*
X175260000Y-102870000D03*
D22*
X175260000Y-97155000D03*
D23*
X175260000Y-94615000D03*
D11*
X128905000Y-62865000D03*
D10*
X131445000Y-62865000D03*
X133985000Y-62865000D03*
X136525000Y-62865000D03*
D12*
X155575000Y-80645000D03*
D13*
X145415000Y-80645000D03*
D17*
X123190000Y-67310000D03*
D24*
X123190000Y-77470000D03*
D25*
X147955000Y-96520000D03*
X137795000Y-96520000D03*
X137795000Y-99060000D03*
X137795000Y-104140000D03*
X137795000Y-101600000D03*
X137795000Y-93980000D03*
X137795000Y-91440000D03*
X147955000Y-99060000D03*
X147955000Y-104140000D03*
X147955000Y-101600000D03*
X147955000Y-93980000D03*
X147955000Y-91440000D03*
M02*
